# MagicaVoxel @ Ephtracy

# material
mtllib Tile.mtl
usemtl palette

# normals
vn -1 0 0
vn 1 0 0
vn 0 0 1
vn 0 0 -1
vn 0 -1 0
vn 0 1 0

# texcoords
vt 0.310547 0.5
vt 0.931641 0.5
vt 0.958984 0.5

# verts
v -10 0 10
v -10 0 -10
v -10 1 10
v -10 1 -10
v 10 0 10
v 10 0 -10
v 10 1 10
v 10 1 -10
v -10 0 10
v -10 1 10
v -9 0 10
v -9 1 10
v -8 0 10
v -8 1 10
v 10 0 10
v 10 1 10
v -10 0 -10
v -10 1 -10
v 10 0 -10
v 10 1 -10
v -10 0 10
v -9 0 10
v -8 0 10
v 10 0 10
v 8 0 8
v 9 0 8
v -9 0 7
v -8 0 7
v 2 0 7
v 3 0 7
v 6 0 7
v 8 0 7
v 9 0 7
v 5 0 6
v 6 0 6
v 8 0 6
v -4 0 5
v -3 0 5
v 1 0 5
v 2 0 5
v 3 0 5
v 5 0 5
v 6 0 5
v 1 0 4
v 2 0 4
v -4 0 2
v -3 0 2
v -7 0 1
v -6 0 1
v 6 0 1
v 7 0 1
v -7 0 -1
v -6 0 -1
v -5 0 -1
v 2 0 -1
v 3 0 -1
v 6 0 -1
v 7 0 -1
v 2 0 -2
v 3 0 -2
v 4 0 -2
v -6 0 -3
v -5 0 -3
v 3 0 -3
v 4 0 -3
v -1 0 -5
v 0 0 -5
v -7 0 -6
v -6 0 -6
v -1 0 -6
v 0 0 -6
v -7 0 -7
v -6 0 -7
v -3 0 -7
v 5 0 -7
v 7 0 -7
v -6 0 -8
v -3 0 -8
v 5 0 -8
v 7 0 -8
v -10 0 -10
v 10 0 -10
v -10 1 10
v -9 1 10
v -8 1 10
v 10 1 10
v 8 1 8
v 9 1 8
v -9 1 7
v -8 1 7
v 2 1 7
v 3 1 7
v 6 1 7
v 8 1 7
v 9 1 7
v 5 1 6
v 6 1 6
v 8 1 6
v -4 1 5
v -3 1 5
v 1 1 5
v 2 1 5
v 3 1 5
v 5 1 5
v 6 1 5
v 1 1 4
v 2 1 4
v -4 1 2
v -3 1 2
v -7 1 1
v -6 1 1
v 6 1 1
v 7 1 1
v -7 1 -1
v -6 1 -1
v -5 1 -1
v 2 1 -1
v 3 1 -1
v 6 1 -1
v 7 1 -1
v 2 1 -2
v 3 1 -2
v 4 1 -2
v -6 1 -3
v -5 1 -3
v 3 1 -3
v 4 1 -3
v -1 1 -5
v 0 1 -5
v -7 1 -6
v -6 1 -6
v -1 1 -6
v 0 1 -6
v -7 1 -7
v -6 1 -7
v -3 1 -7
v 5 1 -7
v 7 1 -7
v -6 1 -8
v -3 1 -8
v 5 1 -8
v 7 1 -8
v -10 1 -10
v 10 1 -10

# faces
f 3/1/1 2/1/1 1/1/1
f 4/1/1 2/1/1 3/1/1
f 5/1/2 6/1/2 7/1/2
f 7/1/2 6/1/2 8/1/2
f 11/1/3 10/1/3 9/1/3
f 12/1/3 10/1/3 11/1/3
f 13/2/3 12/2/3 11/2/3
f 14/2/3 12/2/3 13/2/3
f 15/1/3 14/1/3 13/1/3
f 16/1/3 14/1/3 15/1/3
f 17/1/4 18/1/4 19/1/4
f 19/1/4 18/1/4 20/1/4
f 25/1/5 24/1/5 23/1/5
f 26/1/5 24/1/5 25/1/5
f 27/1/5 22/1/5 21/1/5
f 27/2/5 23/2/5 22/2/5
f 28/1/5 25/1/5 23/1/5
f 28/2/5 23/2/5 27/2/5
f 29/1/5 25/1/5 28/1/5
f 30/1/5 25/1/5 29/1/5
f 31/1/5 25/1/5 30/1/5
f 32/2/5 26/2/5 25/2/5
f 32/1/5 25/1/5 31/1/5
f 33/1/5 24/1/5 26/1/5
f 33/2/5 26/2/5 32/2/5
f 34/1/5 31/1/5 30/1/5
f 35/2/5 32/2/5 31/2/5
f 35/1/5 31/1/5 34/1/5
f 36/1/5 33/1/5 32/1/5
f 36/2/5 32/2/5 35/2/5
f 37/1/5 28/1/5 27/1/5
f 37/1/5 29/1/5 28/1/5
f 38/1/5 29/1/5 37/1/5
f 39/1/5 29/1/5 38/1/5
f 40/3/5 30/3/5 29/3/5
f 40/1/5 29/1/5 39/1/5
f 41/1/5 34/1/5 30/1/5
f 41/3/5 30/3/5 40/3/5
f 42/2/5 35/2/5 34/2/5
f 42/1/5 34/1/5 41/1/5
f 43/1/5 36/1/5 35/1/5
f 43/2/5 35/2/5 42/2/5
f 44/3/5 40/3/5 39/3/5
f 44/1/5 39/1/5 38/1/5
f 45/1/5 42/1/5 41/1/5
f 45/3/5 40/3/5 44/3/5
f 45/1/5 43/1/5 42/1/5
f 45/1/5 41/1/5 40/1/5
f 46/2/5 38/2/5 37/2/5
f 46/1/5 37/1/5 27/1/5
f 47/1/5 44/1/5 38/1/5
f 47/2/5 38/2/5 46/2/5
f 47/1/5 45/1/5 44/1/5
f 48/1/5 46/1/5 27/1/5
f 48/1/5 47/1/5 46/1/5
f 49/1/5 47/1/5 48/1/5
f 50/1/5 36/1/5 43/1/5
f 50/1/5 47/1/5 49/1/5
f 50/1/5 45/1/5 47/1/5
f 50/1/5 43/1/5 45/1/5
f 51/1/5 36/1/5 50/1/5
f 52/2/5 49/2/5 48/2/5
f 52/1/5 48/1/5 27/1/5
f 53/1/5 50/1/5 49/1/5
f 53/2/5 49/2/5 52/2/5
f 54/1/5 50/1/5 53/1/5
f 55/1/5 50/1/5 54/1/5
f 56/1/5 50/1/5 55/1/5
f 57/3/5 51/3/5 50/3/5
f 57/1/5 50/1/5 56/1/5
f 58/1/5 36/1/5 51/1/5
f 58/3/5 51/3/5 57/3/5
f 59/2/5 56/2/5 55/2/5
f 59/1/5 55/1/5 54/1/5
f 60/1/5 57/1/5 56/1/5
f 60/2/5 56/2/5 59/2/5
f 60/1/5 58/1/5 57/1/5
f 61/1/5 58/1/5 60/1/5
f 62/1/5 53/1/5 52/1/5
f 62/2/5 54/2/5 53/2/5
f 63/1/5 59/1/5 54/1/5
f 63/2/5 54/2/5 62/2/5
f 63/1/5 60/1/5 59/1/5
f 64/2/5 61/2/5 60/2/5
f 64/1/5 60/1/5 63/1/5
f 65/1/5 58/1/5 61/1/5
f 65/2/5 61/2/5 64/2/5
f 66/1/5 64/1/5 63/1/5
f 66/1/5 63/1/5 62/1/5
f 66/1/5 65/1/5 64/1/5
f 67/1/5 65/1/5 66/1/5
f 68/1/5 62/1/5 52/1/5
f 68/1/5 52/1/5 27/1/5
f 68/1/5 66/1/5 62/1/5
f 69/1/5 66/1/5 68/1/5
f 70/3/5 67/3/5 66/3/5
f 70/1/5 66/1/5 69/1/5
f 71/1/5 65/1/5 67/1/5
f 71/3/5 67/3/5 70/3/5
f 72/3/5 69/3/5 68/3/5
f 72/1/5 68/1/5 27/1/5
f 73/1/5 70/1/5 69/1/5
f 73/3/5 69/3/5 72/3/5
f 73/1/5 71/1/5 70/1/5
f 74/1/5 71/1/5 73/1/5
f 75/1/5 65/1/5 71/1/5
f 75/1/5 71/1/5 74/1/5
f 75/1/5 58/1/5 65/1/5
f 76/1/5 36/1/5 58/1/5
f 76/1/5 58/1/5 75/1/5
f 77/2/5 74/2/5 73/2/5
f 77/1/5 73/1/5 72/1/5
f 78/1/5 75/1/5 74/1/5
f 78/2/5 74/2/5 77/2/5
f 79/2/5 76/2/5 75/2/5
f 79/1/5 75/1/5 78/1/5
f 80/1/5 36/1/5 76/1/5
f 80/2/5 76/2/5 79/2/5
f 81/1/5 72/1/5 27/1/5
f 81/1/5 27/1/5 21/1/5
f 81/1/5 80/1/5 79/1/5
f 81/1/5 78/1/5 77/1/5
f 81/1/5 79/1/5 78/1/5
f 81/1/5 77/1/5 72/1/5
f 82/1/5 36/1/5 80/1/5
f 82/1/5 80/1/5 81/1/5
f 82/1/5 24/1/5 33/1/5
f 82/1/5 33/1/5 36/1/5
f 85/1/6 86/1/6 87/1/6
f 87/1/6 86/1/6 88/1/6
f 83/1/6 84/1/6 89/1/6
f 84/2/6 85/2/6 89/2/6
f 85/1/6 87/1/6 90/1/6
f 89/2/6 85/2/6 90/2/6
f 90/1/6 87/1/6 91/1/6
f 91/1/6 87/1/6 92/1/6
f 92/1/6 87/1/6 93/1/6
f 87/2/6 88/2/6 94/2/6
f 93/1/6 87/1/6 94/1/6
f 88/1/6 86/1/6 95/1/6
f 94/2/6 88/2/6 95/2/6
f 92/1/6 93/1/6 96/1/6
f 93/2/6 94/2/6 97/2/6
f 96/1/6 93/1/6 97/1/6
f 94/1/6 95/1/6 98/1/6
f 97/2/6 94/2/6 98/2/6
f 89/1/6 90/1/6 99/1/6
f 90/1/6 91/1/6 99/1/6
f 99/1/6 91/1/6 100/1/6
f 100/1/6 91/1/6 101/1/6
f 91/3/6 92/3/6 102/3/6
f 101/1/6 91/1/6 102/1/6
f 92/1/6 96/1/6 103/1/6
f 102/3/6 92/3/6 103/3/6
f 96/2/6 97/2/6 104/2/6
f 103/1/6 96/1/6 104/1/6
f 97/1/6 98/1/6 105/1/6
f 104/2/6 97/2/6 105/2/6
f 101/3/6 102/3/6 106/3/6
f 100/1/6 101/1/6 106/1/6
f 103/1/6 104/1/6 107/1/6
f 106/3/6 102/3/6 107/3/6
f 104/1/6 105/1/6 107/1/6
f 102/1/6 103/1/6 107/1/6
f 99/2/6 100/2/6 108/2/6
f 89/1/6 99/1/6 108/1/6
f 100/1/6 106/1/6 109/1/6
f 108/2/6 100/2/6 109/2/6
f 106/1/6 107/1/6 109/1/6
f 89/1/6 108/1/6 110/1/6
f 108/1/6 109/1/6 110/1/6
f 110/1/6 109/1/6 111/1/6
f 105/1/6 98/1/6 112/1/6
f 111/1/6 109/1/6 112/1/6
f 109/1/6 107/1/6 112/1/6
f 107/1/6 105/1/6 112/1/6
f 112/1/6 98/1/6 113/1/6
f 110/2/6 111/2/6 114/2/6
f 89/1/6 110/1/6 114/1/6
f 111/1/6 112/1/6 115/1/6
f 114/2/6 111/2/6 115/2/6
f 115/1/6 112/1/6 116/1/6
f 116/1/6 112/1/6 117/1/6
f 117/1/6 112/1/6 118/1/6
f 112/3/6 113/3/6 119/3/6
f 118/1/6 112/1/6 119/1/6
f 113/1/6 98/1/6 120/1/6
f 119/3/6 113/3/6 120/3/6
f 117/2/6 118/2/6 121/2/6
f 116/1/6 117/1/6 121/1/6
f 118/1/6 119/1/6 122/1/6
f 121/2/6 118/2/6 122/2/6
f 119/1/6 120/1/6 122/1/6
f 122/1/6 120/1/6 123/1/6
f 114/1/6 115/1/6 124/1/6
f 115/2/6 116/2/6 124/2/6
f 116/1/6 121/1/6 125/1/6
f 124/2/6 116/2/6 125/2/6
f 121/1/6 122/1/6 125/1/6
f 122/2/6 123/2/6 126/2/6
f 125/1/6 122/1/6 126/1/6
f 123/1/6 120/1/6 127/1/6
f 126/2/6 123/2/6 127/2/6
f 125/1/6 126/1/6 128/1/6
f 124/1/6 125/1/6 128/1/6
f 126/1/6 127/1/6 128/1/6
f 128/1/6 127/1/6 129/1/6
f 114/1/6 124/1/6 130/1/6
f 89/1/6 114/1/6 130/1/6
f 124/1/6 128/1/6 130/1/6
f 130/1/6 128/1/6 131/1/6
f 128/3/6 129/3/6 132/3/6
f 131/1/6 128/1/6 132/1/6
f 129/1/6 127/1/6 133/1/6
f 132/3/6 129/3/6 133/3/6
f 130/3/6 131/3/6 134/3/6
f 89/1/6 130/1/6 134/1/6
f 131/1/6 132/1/6 135/1/6
f 134/3/6 131/3/6 135/3/6
f 132/1/6 133/1/6 135/1/6
f 135/1/6 133/1/6 136/1/6
f 133/1/6 127/1/6 137/1/6
f 136/1/6 133/1/6 137/1/6
f 127/1/6 120/1/6 137/1/6
f 120/1/6 98/1/6 138/1/6
f 137/1/6 120/1/6 138/1/6
f 135/2/6 136/2/6 139/2/6
f 134/1/6 135/1/6 139/1/6
f 136/1/6 137/1/6 140/1/6
f 139/2/6 136/2/6 140/2/6
f 137/2/6 138/2/6 141/2/6
f 140/1/6 137/1/6 141/1/6
f 138/1/6 98/1/6 142/1/6
f 141/2/6 138/2/6 142/2/6
f 89/1/6 134/1/6 143/1/6
f 83/1/6 89/1/6 143/1/6
f 141/1/6 142/1/6 143/1/6
f 139/1/6 140/1/6 143/1/6
f 140/1/6 141/1/6 143/1/6
f 134/1/6 139/1/6 143/1/6
f 142/1/6 98/1/6 144/1/6
f 143/1/6 142/1/6 144/1/6
f 95/1/6 86/1/6 144/1/6
f 98/1/6 95/1/6 144/1/6
