# MagicaVoxel @ Ephtracy

# material
mtllib tower_weapon2.mtl
usemtl palette

# normals
vn -1 0 0
vn 1 0 0
vn 0 0 1
vn 0 0 -1
vn 0 -1 0
vn 0 1 0

# texcoords
vt 0.0253906 0.5
vt 0.400391 0.5
vt 0.759766 0.5
vt 0.791016 0.5
vt 0.810547 0.5
vt 0.962891 0.5
vt 0.970703 0.5
vt 0.978516 0.5
vt 0.986328 0.5

# verts
v -12 6 3
v -12 6 -3
v -12 22 3
v -12 22 -3
v -11 5 3
v -11 5 2
v -11 5 -2
v -11 5 -3
v -11 6 3
v -11 6 2
v -11 6 -2
v -11 6 -3
v -10 4 3
v -10 4 2
v -10 4 -2
v -10 4 -3
v -10 5 3
v -10 5 2
v -10 5 -2
v -10 5 -3
v -9 3 3
v -9 3 2
v -9 3 -2
v -9 3 -3
v -9 4 3
v -9 4 2
v -9 4 -2
v -9 4 -3
v -8 2 3
v -8 2 2
v -8 2 -2
v -8 2 -3
v -8 3 3
v -8 3 2
v -8 3 -2
v -8 3 -3
v -7 1 3
v -7 1 2
v -7 1 -2
v -7 1 -3
v -7 2 3
v -7 2 2
v -7 2 -2
v -7 2 -3
v -6 0 3
v -6 0 2
v -6 0 -2
v -6 0 -3
v -6 1 3
v -6 1 2
v -6 1 -2
v -6 1 -3
v -5 4 2
v -5 4 -2
v -5 4 -3
v -5 5 2
v -5 5 -3
v -5 8 2
v -5 8 -3
v -5 12 3
v -5 12 2
v -5 12 -2
v -5 12 -3
v -5 19 3
v -5 19 2
v -5 19 -2
v -5 19 -3
v -4 15 4
v -4 15 3
v -4 16 4
v -4 16 3
v -4 17 4
v -4 17 3
v -4 18 4
v -4 18 3
v -3 14 4
v -3 14 3
v -3 15 4
v -3 15 3
v -2 6 -3
v -2 6 -4
v -2 8 -3
v -2 12 -3
v -2 13 4
v -2 13 3
v -2 14 4
v -2 14 3
v -2 16 -3
v -2 16 -4
v 1 6 -3
v 1 6 -4
v 1 8 -3
v 1 12 -3
v 1 16 -3
v 1 16 -4
v 2 19 3
v 2 19 2
v 2 19 -2
v 2 19 -3
v 2 21 2
v 2 21 -2
v 2 22 3
v 2 22 -3
v 5 3 3
v 5 3 2
v 5 4 3
v 5 4 2
v 6 4 3
v 6 4 2
v 6 4 -2
v 6 4 -3
v 6 5 3
v 6 5 2
v 6 5 -2
v 6 5 -3
v 7 5 3
v 7 5 2
v 7 5 -2
v 7 5 -3
v 7 6 3
v 7 6 2
v 7 6 -2
v 7 6 -3
v 8 6 3
v 8 6 2
v 8 6 -2
v 8 6 -3
v 8 7 3
v 8 7 2
v 8 7 -2
v 8 7 -3
v 9 7 3
v 9 7 2
v 9 7 -2
v 9 7 -3
v 9 19 3
v 9 19 2
v 9 19 -2
v 9 19 -3
v -9 7 3
v -9 7 2
v -9 7 -2
v -9 7 -3
v -9 19 3
v -9 19 2
v -9 19 -2
v -9 19 -3
v -8 6 3
v -8 6 2
v -8 6 -2
v -8 6 -3
v -8 7 3
v -8 7 2
v -8 7 -2
v -8 7 -3
v -7 5 3
v -7 5 2
v -7 5 -2
v -7 5 -3
v -7 6 3
v -7 6 2
v -7 6 -2
v -7 6 -3
v -6 4 3
v -6 4 2
v -6 4 -2
v -6 4 -3
v -6 5 3
v -6 5 2
v -6 5 -2
v -6 5 -3
v -5 3 3
v -5 3 2
v -5 4 3
v -5 4 2
v -2 19 3
v -2 19 2
v -2 19 -2
v -2 19 -3
v -2 21 2
v -2 21 -2
v -2 22 3
v -2 22 -3
v -1 6 -3
v -1 6 -4
v -1 8 -3
v -1 12 -3
v -1 16 -3
v -1 16 -4
v 2 6 -3
v 2 6 -4
v 2 8 -3
v 2 12 -3
v 2 13 4
v 2 13 3
v 2 14 4
v 2 14 3
v 2 16 -3
v 2 16 -4
v 3 14 4
v 3 14 3
v 3 15 4
v 3 15 3
v 4 15 4
v 4 15 3
v 4 16 4
v 4 16 3
v 4 17 4
v 4 17 3
v 4 18 4
v 4 18 3
v 5 4 2
v 5 4 -2
v 5 4 -3
v 5 5 2
v 5 5 -3
v 5 8 2
v 5 8 -3
v 5 12 3
v 5 12 2
v 5 12 -2
v 5 12 -3
v 5 19 3
v 5 19 2
v 5 19 -2
v 5 19 -3
v 6 0 3
v 6 0 2
v 6 0 -2
v 6 0 -3
v 6 1 3
v 6 1 2
v 6 1 -2
v 6 1 -3
v 7 1 3
v 7 1 2
v 7 1 -2
v 7 1 -3
v 7 2 3
v 7 2 2
v 7 2 -2
v 7 2 -3
v 8 2 3
v 8 2 2
v 8 2 -2
v 8 2 -3
v 8 3 3
v 8 3 2
v 8 3 -2
v 8 3 -3
v 9 3 3
v 9 3 2
v 9 3 -2
v 9 3 -3
v 9 4 3
v 9 4 2
v 9 4 -2
v 9 4 -3
v 10 4 3
v 10 4 2
v 10 4 -2
v 10 4 -3
v 10 5 3
v 10 5 2
v 10 5 -2
v 10 5 -3
v 11 5 3
v 11 5 2
v 11 5 -2
v 11 5 -3
v 11 6 3
v 11 6 2
v 11 6 -2
v 11 6 -3
v 12 6 3
v 12 6 -3
v 12 22 3
v 12 22 -3
v -4 15 4
v -4 16 4
v -4 17 4
v -4 18 4
v -3 14 4
v -3 15 4
v -3 16 4
v -3 17 4
v -3 18 4
v -2 13 4
v -2 14 4
v -2 15 4
v -2 16 4
v -2 17 4
v -2 18 4
v -1 13 4
v -1 14 4
v -1 15 4
v -1 16 4
v -1 17 4
v -1 18 4
v 1 13 4
v 1 14 4
v 1 15 4
v 1 16 4
v 1 17 4
v 1 18 4
v 2 13 4
v 2 14 4
v 2 15 4
v 2 16 4
v 2 17 4
v 2 18 4
v 3 14 4
v 3 15 4
v 3 16 4
v 3 17 4
v 3 18 4
v 4 15 4
v 4 16 4
v 4 17 4
v 4 18 4
v -12 6 3
v -12 22 3
v -11 5 3
v -11 6 3
v -11 22 3
v -10 4 3
v -10 5 3
v -9 3 3
v -9 4 3
v -9 7 3
v -9 19 3
v -8 2 3
v -8 3 3
v -8 6 3
v -8 7 3
v -7 1 3
v -7 2 3
v -7 5 3
v -7 6 3
v -6 0 3
v -6 1 3
v -6 4 3
v -6 5 3
v -5 2 3
v -5 3 3
v -5 4 3
v -5 12 3
v -5 19 3
v -4 15 3
v -4 16 3
v -4 17 3
v -4 18 3
v -3 14 3
v -3 15 3
v -3 18 3
v -2 13 3
v -2 14 3
v -2 18 3
v -2 19 3
v -2 22 3
v -1 13 3
v -1 18 3
v 1 13 3
v 1 18 3
v 2 13 3
v 2 14 3
v 2 18 3
v 2 19 3
v 2 22 3
v 3 14 3
v 3 15 3
v 3 18 3
v 4 15 3
v 4 16 3
v 4 17 3
v 4 18 3
v 5 2 3
v 5 3 3
v 5 4 3
v 5 12 3
v 5 19 3
v 6 0 3
v 6 1 3
v 6 4 3
v 6 5 3
v 7 1 3
v 7 2 3
v 7 5 3
v 7 6 3
v 8 2 3
v 8 3 3
v 8 6 3
v 8 7 3
v 9 3 3
v 9 4 3
v 9 7 3
v 9 19 3
v 10 4 3
v 10 5 3
v 11 5 3
v 11 6 3
v 11 22 3
v 12 6 3
v 12 22 3
v -5 3 2
v -5 4 2
v -5 5 2
v -5 8 2
v 5 3 2
v 5 4 2
v 5 5 2
v 5 8 2
v -2 8 -3
v -2 12 -3
v -1 8 -3
v -1 12 -3
v 1 8 -3
v 1 12 -3
v 2 8 -3
v 2 12 -3
v -12 6 -3
v -12 22 -3
v -11 5 -3
v -11 6 -3
v -11 22 -3
v -10 4 -3
v -10 5 -3
v -9 3 -3
v -9 4 -3
v -9 7 -3
v -9 19 -3
v -8 2 -3
v -8 3 -3
v -8 6 -3
v -8 7 -3
v -7 1 -3
v -7 2 -3
v -7 5 -3
v -7 6 -3
v -6 0 -3
v -6 1 -3
v -6 4 -3
v -6 5 -3
v -5 2 -3
v -5 3 -3
v -5 4 -3
v -5 5 -3
v -5 8 -3
v -5 12 -3
v -5 19 -3
v -2 6 -3
v -2 8 -3
v -2 12 -3
v -2 16 -3
v -2 18 -3
v -2 19 -3
v -2 22 -3
v -1 6 -3
v -1 8 -3
v -1 12 -3
v -1 16 -3
v 1 6 -3
v 1 8 -3
v 1 12 -3
v 1 16 -3
v 2 6 -3
v 2 8 -3
v 2 12 -3
v 2 16 -3
v 2 18 -3
v 2 19 -3
v 2 22 -3
v 5 2 -3
v 5 3 -3
v 5 4 -3
v 5 5 -3
v 5 8 -3
v 5 12 -3
v 5 19 -3
v 6 0 -3
v 6 1 -3
v 6 4 -3
v 6 5 -3
v 7 1 -3
v 7 2 -3
v 7 5 -3
v 7 6 -3
v 8 2 -3
v 8 3 -3
v 8 6 -3
v 8 7 -3
v 9 3 -3
v 9 4 -3
v 9 7 -3
v 9 19 -3
v 10 4 -3
v 10 5 -3
v 11 5 -3
v 11 6 -3
v 11 22 -3
v 12 6 -3
v 12 22 -3
v -2 6 -4
v -2 16 -4
v -1 6 -4
v -1 16 -4
v 1 6 -4
v 1 16 -4
v 2 6 -4
v 2 16 -4
v -6 0 3
v 6 0 3
v -6 0 2
v 6 0 2
v -1 0 1
v 1 0 1
v -1 0 -1
v 1 0 -1
v -6 0 -2
v 6 0 -2
v -6 0 -3
v 6 0 -3
v -7 1 3
v -6 1 3
v 6 1 3
v 7 1 3
v -7 1 2
v -6 1 2
v 6 1 2
v 7 1 2
v -7 1 -2
v -6 1 -2
v 6 1 -2
v 7 1 -2
v -7 1 -3
v -6 1 -3
v 6 1 -3
v 7 1 -3
v -8 2 3
v -7 2 3
v 7 2 3
v 8 2 3
v -8 2 2
v -7 2 2
v 7 2 2
v 8 2 2
v -8 2 -2
v -7 2 -2
v 7 2 -2
v 8 2 -2
v -8 2 -3
v -7 2 -3
v 7 2 -3
v 8 2 -3
v -9 3 3
v -8 3 3
v 8 3 3
v 9 3 3
v -9 3 2
v -8 3 2
v 8 3 2
v 9 3 2
v -9 3 -2
v -8 3 -2
v 8 3 -2
v 9 3 -2
v -9 3 -3
v -8 3 -3
v 8 3 -3
v 9 3 -3
v -10 4 3
v -9 4 3
v 9 4 3
v 10 4 3
v -10 4 2
v -9 4 2
v 9 4 2
v 10 4 2
v -10 4 -2
v -9 4 -2
v 9 4 -2
v 10 4 -2
v -10 4 -3
v -9 4 -3
v 9 4 -3
v 10 4 -3
v -11 5 3
v -10 5 3
v 10 5 3
v 11 5 3
v -11 5 2
v -10 5 2
v 10 5 2
v 11 5 2
v -11 5 -2
v -10 5 -2
v 10 5 -2
v 11 5 -2
v -11 5 -3
v -10 5 -3
v 10 5 -3
v 11 5 -3
v -12 6 3
v -11 6 3
v 11 6 3
v 12 6 3
v -11 6 2
v 11 6 2
v -11 6 -2
v 11 6 -2
v -12 6 -3
v -11 6 -3
v -2 6 -3
v -1 6 -3
v 1 6 -3
v 2 6 -3
v 11 6 -3
v 12 6 -3
v -2 6 -4
v -1 6 -4
v 1 6 -4
v 2 6 -4
v -5 12 3
v 5 12 3
v -5 12 2
v 5 12 2
v -5 12 -2
v 5 12 -2
v -5 12 -3
v -2 12 -3
v -1 12 -3
v 1 12 -3
v 2 12 -3
v 5 12 -3
v -2 13 4
v -1 13 4
v 1 13 4
v 2 13 4
v -2 13 3
v -1 13 3
v 1 13 3
v 2 13 3
v -3 14 4
v -2 14 4
v 2 14 4
v 3 14 4
v -3 14 3
v -2 14 3
v 2 14 3
v 3 14 3
v -4 15 4
v -3 15 4
v 3 15 4
v 4 15 4
v -4 15 3
v -3 15 3
v 3 15 3
v 4 15 3
v -9 19 3
v -5 19 3
v 5 19 3
v 9 19 3
v -9 19 2
v -5 19 2
v 5 19 2
v 9 19 2
v -9 19 -2
v -5 19 -2
v 5 19 -2
v 9 19 -2
v -9 19 -3
v -5 19 -3
v 5 19 -3
v 9 19 -3
v -5 3 3
v 5 3 3
v -5 3 2
v 5 3 2
v -6 4 3
v -5 4 3
v 5 4 3
v 6 4 3
v -6 4 2
v -5 4 2
v 5 4 2
v 6 4 2
v -6 4 -2
v -5 4 -2
v 5 4 -2
v 6 4 -2
v -6 4 -3
v -5 4 -3
v 5 4 -3
v 6 4 -3
v -7 5 3
v -6 5 3
v 6 5 3
v 7 5 3
v -7 5 2
v -6 5 2
v 6 5 2
v 7 5 2
v -7 5 -2
v -6 5 -2
v 6 5 -2
v 7 5 -2
v -7 5 -3
v -6 5 -3
v 6 5 -3
v 7 5 -3
v -8 6 3
v -7 6 3
v 7 6 3
v 8 6 3
v -8 6 2
v -7 6 2
v 7 6 2
v 8 6 2
v -8 6 -2
v -7 6 -2
v 7 6 -2
v 8 6 -2
v -8 6 -3
v -7 6 -3
v 7 6 -3
v 8 6 -3
v -9 7 3
v -8 7 3
v 8 7 3
v 9 7 3
v -9 7 2
v -8 7 2
v 8 7 2
v 9 7 2
v -9 7 -2
v -8 7 -2
v 8 7 -2
v 9 7 -2
v -9 7 -3
v -8 7 -3
v 8 7 -3
v 9 7 -3
v -5 8 2
v 5 8 2
v -5 8 -3
v -2 8 -3
v -1 8 -3
v 1 8 -3
v 2 8 -3
v 5 8 -3
v -2 16 -3
v -1 16 -3
v 1 16 -3
v 2 16 -3
v -2 16 -4
v -1 16 -4
v 1 16 -4
v 2 16 -4
v -4 18 4
v -3 18 4
v -2 18 4
v -1 18 4
v 1 18 4
v 2 18 4
v 3 18 4
v 4 18 4
v -4 18 3
v -3 18 3
v -2 18 3
v -1 18 3
v 1 18 3
v 2 18 3
v 3 18 3
v 4 18 3
v -2 19 3
v 2 19 3
v -2 19 2
v 2 19 2
v -2 19 -2
v 2 19 -2
v -2 19 -3
v 2 19 -3
v -12 22 3
v -11 22 3
v -2 22 3
v 2 22 3
v 11 22 3
v 12 22 3
v -12 22 -3
v -11 22 -3
v -2 22 -3
v 2 22 -3
v 11 22 -3
v 12 22 -3

# faces
f 3/4/1 2/4/1 1/4/1
f 4/4/1 2/4/1 3/4/1
f 9/8/1 6/8/1 5/8/1
f 10/9/1 7/9/1 6/9/1
f 10/8/1 6/8/1 9/8/1
f 11/8/1 8/8/1 7/8/1
f 11/9/1 7/9/1 10/9/1
f 12/8/1 8/8/1 11/8/1
f 17/8/1 14/8/1 13/8/1
f 18/9/1 15/9/1 14/9/1
f 18/8/1 14/8/1 17/8/1
f 19/8/1 16/8/1 15/8/1
f 19/9/1 15/9/1 18/9/1
f 20/8/1 16/8/1 19/8/1
f 25/8/1 22/8/1 21/8/1
f 26/9/1 23/9/1 22/9/1
f 26/8/1 22/8/1 25/8/1
f 27/8/1 24/8/1 23/8/1
f 27/9/1 23/9/1 26/9/1
f 28/8/1 24/8/1 27/8/1
f 33/8/1 30/8/1 29/8/1
f 34/9/1 31/9/1 30/9/1
f 34/8/1 30/8/1 33/8/1
f 35/8/1 32/8/1 31/8/1
f 35/9/1 31/9/1 34/9/1
f 36/8/1 32/8/1 35/8/1
f 41/8/1 38/8/1 37/8/1
f 42/9/1 39/9/1 38/9/1
f 42/8/1 38/8/1 41/8/1
f 43/8/1 40/8/1 39/8/1
f 43/9/1 39/9/1 42/9/1
f 44/8/1 40/8/1 43/8/1
f 49/8/1 46/8/1 45/8/1
f 50/9/1 47/9/1 46/9/1
f 50/8/1 46/8/1 49/8/1
f 51/8/1 48/8/1 47/8/1
f 51/9/1 47/9/1 50/9/1
f 52/8/1 48/8/1 51/8/1
f 56/3/1 54/3/1 53/3/1
f 56/3/1 55/3/1 54/3/1
f 57/3/1 55/3/1 56/3/1
f 58/1/1 57/1/1 56/1/1
f 59/1/1 57/1/1 58/1/1
f 64/8/1 61/8/1 60/8/1
f 65/9/1 62/9/1 61/9/1
f 65/8/1 61/8/1 64/8/1
f 66/8/1 63/8/1 62/8/1
f 66/9/1 62/9/1 65/9/1
f 67/8/1 63/8/1 66/8/1
f 70/7/1 69/7/1 68/7/1
f 71/7/1 69/7/1 70/7/1
f 72/6/1 71/6/1 70/6/1
f 73/6/1 71/6/1 72/6/1
f 74/7/1 73/7/1 72/7/1
f 75/7/1 73/7/1 74/7/1
f 78/7/1 77/7/1 76/7/1
f 79/7/1 77/7/1 78/7/1
f 82/5/1 81/5/1 80/5/1
f 83/5/1 81/5/1 82/5/1
f 86/7/1 85/7/1 84/7/1
f 87/7/1 85/7/1 86/7/1
f 88/5/1 81/5/1 83/5/1
f 89/5/1 81/5/1 88/5/1
f 92/5/1 91/5/1 90/5/1
f 93/5/1 91/5/1 92/5/1
f 94/5/1 91/5/1 93/5/1
f 95/5/1 91/5/1 94/5/1
f 100/8/1 97/8/1 96/8/1
f 100/9/1 98/9/1 97/9/1
f 101/8/1 99/8/1 98/8/1
f 101/9/1 98/9/1 100/9/1
f 102/8/1 100/8/1 96/8/1
f 102/8/1 101/8/1 100/8/1
f 103/8/1 99/8/1 101/8/1
f 103/8/1 101/8/1 102/8/1
f 106/8/1 105/8/1 104/8/1
f 107/8/1 105/8/1 106/8/1
f 112/8/1 109/8/1 108/8/1
f 113/9/1 110/9/1 109/9/1
f 113/8/1 109/8/1 112/8/1
f 114/8/1 111/8/1 110/8/1
f 114/9/1 110/9/1 113/9/1
f 115/8/1 111/8/1 114/8/1
f 120/8/1 117/8/1 116/8/1
f 121/9/1 118/9/1 117/9/1
f 121/8/1 117/8/1 120/8/1
f 122/8/1 119/8/1 118/8/1
f 122/9/1 118/9/1 121/9/1
f 123/8/1 119/8/1 122/8/1
f 128/8/1 125/8/1 124/8/1
f 129/9/1 126/9/1 125/9/1
f 129/8/1 125/8/1 128/8/1
f 130/8/1 127/8/1 126/8/1
f 130/9/1 126/9/1 129/9/1
f 131/8/1 127/8/1 130/8/1
f 136/8/1 133/8/1 132/8/1
f 137/9/1 134/9/1 133/9/1
f 137/8/1 133/8/1 136/8/1
f 138/8/1 135/8/1 134/8/1
f 138/9/1 134/9/1 137/9/1
f 139/8/1 135/8/1 138/8/1
f 140/8/2 141/8/2 144/8/2
f 141/9/2 142/9/2 145/9/2
f 144/8/2 141/8/2 145/8/2
f 142/8/2 143/8/2 146/8/2
f 145/9/2 142/9/2 146/9/2
f 146/8/2 143/8/2 147/8/2
f 148/8/2 149/8/2 152/8/2
f 149/9/2 150/9/2 153/9/2
f 152/8/2 149/8/2 153/8/2
f 150/8/2 151/8/2 154/8/2
f 153/9/2 150/9/2 154/9/2
f 154/8/2 151/8/2 155/8/2
f 156/8/2 157/8/2 160/8/2
f 157/9/2 158/9/2 161/9/2
f 160/8/2 157/8/2 161/8/2
f 158/8/2 159/8/2 162/8/2
f 161/9/2 158/9/2 162/9/2
f 162/8/2 159/8/2 163/8/2
f 164/8/2 165/8/2 168/8/2
f 165/9/2 166/9/2 169/9/2
f 168/8/2 165/8/2 169/8/2
f 166/8/2 167/8/2 170/8/2
f 169/9/2 166/9/2 170/9/2
f 170/8/2 167/8/2 171/8/2
f 172/8/2 173/8/2 174/8/2
f 174/8/2 173/8/2 175/8/2
f 176/8/2 177/8/2 180/8/2
f 177/9/2 178/9/2 180/9/2
f 178/8/2 179/8/2 181/8/2
f 180/9/2 178/9/2 181/9/2
f 176/8/2 180/8/2 182/8/2
f 180/8/2 181/8/2 182/8/2
f 181/8/2 179/8/2 183/8/2
f 182/8/2 181/8/2 183/8/2
f 184/5/2 185/5/2 186/5/2
f 186/5/2 185/5/2 187/5/2
f 187/5/2 185/5/2 188/5/2
f 188/5/2 185/5/2 189/5/2
f 190/5/2 191/5/2 192/5/2
f 192/5/2 191/5/2 193/5/2
f 194/7/2 195/7/2 196/7/2
f 196/7/2 195/7/2 197/7/2
f 193/5/2 191/5/2 198/5/2
f 198/5/2 191/5/2 199/5/2
f 200/7/2 201/7/2 202/7/2
f 202/7/2 201/7/2 203/7/2
f 204/7/2 205/7/2 206/7/2
f 206/7/2 205/7/2 207/7/2
f 206/6/2 207/6/2 208/6/2
f 208/6/2 207/6/2 209/6/2
f 208/7/2 209/7/2 210/7/2
f 210/7/2 209/7/2 211/7/2
f 212/3/2 213/3/2 215/3/2
f 213/3/2 214/3/2 215/3/2
f 215/3/2 214/3/2 216/3/2
f 215/1/2 216/1/2 217/1/2
f 217/1/2 216/1/2 218/1/2
f 219/8/2 220/8/2 223/8/2
f 220/9/2 221/9/2 224/9/2
f 223/8/2 220/8/2 224/8/2
f 221/8/2 222/8/2 225/8/2
f 224/9/2 221/9/2 225/9/2
f 225/8/2 222/8/2 226/8/2
f 227/8/2 228/8/2 231/8/2
f 228/9/2 229/9/2 232/9/2
f 231/8/2 228/8/2 232/8/2
f 229/8/2 230/8/2 233/8/2
f 232/9/2 229/9/2 233/9/2
f 233/8/2 230/8/2 234/8/2
f 235/8/2 236/8/2 239/8/2
f 236/9/2 237/9/2 240/9/2
f 239/8/2 236/8/2 240/8/2
f 237/8/2 238/8/2 241/8/2
f 240/9/2 237/9/2 241/9/2
f 241/8/2 238/8/2 242/8/2
f 243/8/2 244/8/2 247/8/2
f 244/9/2 245/9/2 248/9/2
f 247/8/2 244/8/2 248/8/2
f 245/8/2 246/8/2 249/8/2
f 248/9/2 245/9/2 249/9/2
f 249/8/2 246/8/2 250/8/2
f 251/8/2 252/8/2 255/8/2
f 252/9/2 253/9/2 256/9/2
f 255/8/2 252/8/2 256/8/2
f 253/8/2 254/8/2 257/8/2
f 256/9/2 253/9/2 257/9/2
f 257/8/2 254/8/2 258/8/2
f 259/8/2 260/8/2 263/8/2
f 260/9/2 261/9/2 264/9/2
f 263/8/2 260/8/2 264/8/2
f 261/8/2 262/8/2 265/8/2
f 264/9/2 261/9/2 265/9/2
f 265/8/2 262/8/2 266/8/2
f 267/8/2 268/8/2 271/8/2
f 268/9/2 269/9/2 272/9/2
f 271/8/2 268/8/2 272/8/2
f 269/8/2 270/8/2 273/8/2
f 272/9/2 269/9/2 273/9/2
f 273/8/2 270/8/2 274/8/2
f 275/4/2 276/4/2 277/4/2
f 277/4/2 276/4/2 278/4/2
f 284/7/3 280/7/3 279/7/3
f 285/6/3 281/6/3 280/6/3
f 285/7/3 280/7/3 284/7/3
f 286/7/3 282/7/3 281/7/3
f 286/6/3 281/6/3 285/6/3
f 287/7/3 282/7/3 286/7/3
f 289/7/3 284/7/3 283/7/3
f 290/6/3 285/6/3 284/6/3
f 290/7/3 284/7/3 289/7/3
f 291/7/3 286/7/3 285/7/3
f 291/6/3 285/6/3 290/6/3
f 292/6/3 287/6/3 286/6/3
f 292/7/3 286/7/3 291/7/3
f 293/6/3 287/6/3 292/6/3
f 294/7/3 289/7/3 288/7/3
f 295/6/3 290/6/3 289/6/3
f 295/7/3 289/7/3 294/7/3
f 296/7/3 291/7/3 290/7/3
f 296/6/3 290/6/3 295/6/3
f 297/6/3 292/6/3 291/6/3
f 297/7/3 291/7/3 296/7/3
f 298/7/3 293/7/3 292/7/3
f 298/6/3 292/6/3 297/6/3
f 299/7/3 293/7/3 298/7/3
f 300/6/3 295/6/3 294/6/3
f 301/7/3 296/7/3 295/7/3
f 301/6/3 295/6/3 300/6/3
f 302/6/3 297/6/3 296/6/3
f 302/7/3 296/7/3 301/7/3
f 303/7/3 298/7/3 297/7/3
f 303/6/3 297/6/3 302/6/3
f 304/6/3 299/6/3 298/6/3
f 304/7/3 298/7/3 303/7/3
f 305/6/3 299/6/3 304/6/3
f 306/7/3 301/7/3 300/7/3
f 307/6/3 302/6/3 301/6/3
f 307/7/3 301/7/3 306/7/3
f 308/7/3 303/7/3 302/7/3
f 308/6/3 302/6/3 307/6/3
f 309/6/3 304/6/3 303/6/3
f 309/7/3 303/7/3 308/7/3
f 310/7/3 305/7/3 304/7/3
f 310/6/3 304/6/3 309/6/3
f 311/7/3 305/7/3 310/7/3
f 312/7/3 308/7/3 307/7/3
f 313/6/3 309/6/3 308/6/3
f 313/7/3 308/7/3 312/7/3
f 314/7/3 310/7/3 309/7/3
f 314/6/3 309/6/3 313/6/3
f 315/6/3 311/6/3 310/6/3
f 315/7/3 310/7/3 314/7/3
f 316/6/3 311/6/3 315/6/3
f 317/7/3 314/7/3 313/7/3
f 318/6/3 315/6/3 314/6/3
f 318/7/3 314/7/3 317/7/3
f 319/7/3 316/7/3 315/7/3
f 319/6/3 315/6/3 318/6/3
f 320/7/3 316/7/3 319/7/3
f 324/4/3 322/4/3 321/4/3
f 325/4/3 322/4/3 324/4/3
f 327/8/3 324/8/3 323/8/3
f 327/8/3 325/8/3 324/8/3
f 329/8/3 327/8/3 326/8/3
f 330/8/3 325/8/3 327/8/3
f 330/8/3 327/8/3 329/8/3
f 331/8/3 325/8/3 330/8/3
f 333/8/3 329/8/3 328/8/3
f 333/8/3 330/8/3 329/8/3
f 334/8/3 330/8/3 333/8/3
f 335/8/3 330/8/3 334/8/3
f 337/8/3 333/8/3 332/8/3
f 337/8/3 334/8/3 333/8/3
f 338/8/3 334/8/3 337/8/3
f 339/8/3 334/8/3 338/8/3
f 341/8/3 337/8/3 336/8/3
f 341/8/3 338/8/3 337/8/3
f 342/8/3 338/8/3 341/8/3
f 343/8/3 338/8/3 342/8/3
f 344/8/3 341/8/3 340/8/3
f 344/8/3 342/8/3 341/8/3
f 345/8/3 342/8/3 344/8/3
f 346/8/3 342/8/3 345/8/3
f 348/8/3 325/8/3 331/8/3
f 349/8/3 348/8/3 347/8/3
f 350/8/3 348/8/3 349/8/3
f 351/8/3 348/8/3 350/8/3
f 352/8/3 348/8/3 351/8/3
f 353/8/3 349/8/3 347/8/3
f 354/8/3 349/8/3 353/8/3
f 355/8/3 348/8/3 352/8/3
f 356/8/3 353/8/3 347/8/3
f 357/8/3 353/8/3 356/8/3
f 358/8/3 348/8/3 355/8/3
f 359/8/3 325/8/3 348/8/3
f 359/8/3 348/8/3 358/8/3
f 360/8/3 325/8/3 359/8/3
f 361/8/3 356/8/3 347/8/3
f 362/4/3 359/4/3 358/4/3
f 363/8/3 361/8/3 347/8/3
f 364/4/3 359/4/3 362/4/3
f 365/8/3 363/8/3 347/8/3
f 367/4/3 359/4/3 364/4/3
f 368/4/3 359/4/3 367/4/3
f 370/8/3 366/8/3 365/8/3
f 372/8/3 369/8/3 368/8/3
f 372/8/3 368/8/3 367/8/3
f 373/8/3 371/8/3 370/8/3
f 376/8/3 369/8/3 372/8/3
f 377/8/3 344/8/3 340/8/3
f 377/4/3 345/4/3 344/4/3
f 378/4/3 345/4/3 377/4/3
f 380/8/3 376/8/3 375/8/3
f 380/8/3 375/8/3 374/8/3
f 380/8/3 365/8/3 347/8/3
f 380/8/3 370/8/3 365/8/3
f 380/8/3 373/8/3 370/8/3
f 380/8/3 374/8/3 373/8/3
f 381/8/3 369/8/3 376/8/3
f 381/8/3 376/8/3 380/8/3
f 382/8/3 379/8/3 378/8/3
f 382/8/3 378/8/3 377/8/3
f 382/8/3 377/8/3 340/8/3
f 383/8/3 379/8/3 382/8/3
f 384/8/3 379/8/3 383/8/3
f 386/8/3 385/8/3 384/8/3
f 386/8/3 384/8/3 383/8/3
f 387/8/3 385/8/3 386/8/3
f 388/8/3 385/8/3 387/8/3
f 390/8/3 389/8/3 388/8/3
f 390/8/3 388/8/3 387/8/3
f 391/8/3 389/8/3 390/8/3
f 392/8/3 389/8/3 391/8/3
f 394/8/3 393/8/3 392/8/3
f 394/8/3 392/8/3 391/8/3
f 395/8/3 393/8/3 394/8/3
f 396/8/3 393/8/3 395/8/3
f 397/8/3 369/8/3 381/8/3
f 398/8/3 396/8/3 395/8/3
f 398/8/3 397/8/3 396/8/3
f 399/8/3 397/8/3 398/8/3
f 400/8/3 397/8/3 399/8/3
f 401/8/3 397/8/3 400/8/3
f 402/8/3 369/8/3 397/8/3
f 402/8/3 397/8/3 401/8/3
f 403/4/3 402/4/3 401/4/3
f 404/4/3 402/4/3 403/4/3
f 409/3/3 406/3/3 405/3/3
f 409/3/3 407/3/3 406/3/3
f 410/3/3 407/3/3 409/3/3
f 411/1/3 408/1/3 407/1/3
f 411/3/3 407/3/3 410/3/3
f 412/1/3 408/1/3 411/1/3
f 415/5/3 414/5/3 413/5/3
f 416/5/3 414/5/3 415/5/3
f 419/5/3 418/5/3 417/5/3
f 420/5/3 418/5/3 419/5/3
f 421/4/4 422/4/4 424/4/4
f 424/4/4 422/4/4 425/4/4
f 423/8/4 424/8/4 427/8/4
f 424/8/4 425/8/4 427/8/4
f 426/8/4 427/8/4 429/8/4
f 427/8/4 425/8/4 430/8/4
f 429/8/4 427/8/4 430/8/4
f 430/8/4 425/8/4 431/8/4
f 428/8/4 429/8/4 433/8/4
f 429/8/4 430/8/4 433/8/4
f 433/8/4 430/8/4 434/8/4
f 434/8/4 430/8/4 435/8/4
f 432/8/4 433/8/4 437/8/4
f 433/8/4 434/8/4 437/8/4
f 437/8/4 434/8/4 438/8/4
f 438/8/4 434/8/4 439/8/4
f 436/8/4 437/8/4 441/8/4
f 437/8/4 438/8/4 441/8/4
f 441/8/4 438/8/4 442/8/4
f 442/8/4 438/8/4 443/8/4
f 440/8/4 441/8/4 444/8/4
f 441/8/4 442/8/4 444/8/4
f 444/8/4 442/8/4 445/8/4
f 445/8/4 442/8/4 446/8/4
f 431/8/4 425/8/4 450/8/4
f 447/1/4 448/1/4 451/1/4
f 451/1/4 448/1/4 452/1/4
f 449/8/4 450/8/4 453/8/4
f 453/8/4 450/8/4 454/8/4
f 454/8/4 450/8/4 455/8/4
f 450/8/4 425/8/4 456/8/4
f 455/8/4 450/8/4 456/8/4
f 456/8/4 425/8/4 457/8/4
f 447/1/4 451/1/4 458/1/4
f 454/8/4 455/8/4 461/8/4
f 458/1/4 459/1/4 462/1/4
f 447/1/4 458/1/4 462/1/4
f 462/1/4 459/1/4 463/1/4
f 460/8/4 461/8/4 464/8/4
f 461/8/4 455/8/4 465/8/4
f 464/8/4 461/8/4 465/8/4
f 447/1/4 462/1/4 466/1/4
f 465/8/4 455/8/4 469/8/4
f 455/4/4 456/4/4 470/4/4
f 469/8/4 455/8/4 470/8/4
f 470/4/4 456/4/4 471/4/4
f 444/4/4 445/4/4 473/4/4
f 440/8/4 444/8/4 473/8/4
f 446/3/4 447/3/4 474/3/4
f 473/4/4 445/4/4 474/4/4
f 445/3/4 446/3/4 474/3/4
f 474/3/4 447/3/4 475/3/4
f 466/1/4 467/1/4 476/1/4
f 475/3/4 447/3/4 476/3/4
f 447/1/4 466/1/4 476/1/4
f 476/1/4 467/1/4 477/1/4
f 469/8/4 470/8/4 478/8/4
f 471/8/4 472/8/4 478/8/4
f 470/8/4 471/8/4 478/8/4
f 468/8/4 469/8/4 478/8/4
f 478/8/4 472/8/4 479/8/4
f 440/8/4 473/8/4 480/8/4
f 474/8/4 475/8/4 480/8/4
f 473/8/4 474/8/4 480/8/4
f 480/8/4 475/8/4 481/8/4
f 481/8/4 475/8/4 482/8/4
f 482/8/4 483/8/4 484/8/4
f 481/8/4 482/8/4 484/8/4
f 484/8/4 483/8/4 485/8/4
f 485/8/4 483/8/4 486/8/4
f 486/8/4 487/8/4 488/8/4
f 485/8/4 486/8/4 488/8/4
f 488/8/4 487/8/4 489/8/4
f 489/8/4 487/8/4 490/8/4
f 490/8/4 491/8/4 492/8/4
f 489/8/4 490/8/4 492/8/4
f 492/8/4 491/8/4 493/8/4
f 493/8/4 491/8/4 494/8/4
f 479/8/4 472/8/4 495/8/4
f 493/8/4 494/8/4 496/8/4
f 494/8/4 495/8/4 496/8/4
f 496/8/4 495/8/4 497/8/4
f 497/8/4 495/8/4 498/8/4
f 498/8/4 495/8/4 499/8/4
f 495/8/4 472/8/4 500/8/4
f 499/8/4 495/8/4 500/8/4
f 499/4/4 500/4/4 501/4/4
f 501/4/4 500/4/4 502/4/4
f 503/5/4 504/5/4 505/5/4
f 505/5/4 504/5/4 506/5/4
f 507/5/4 508/5/4 509/5/4
f 509/5/4 508/5/4 510/5/4
f 513/8/5 512/8/5 511/8/5
f 514/8/5 512/8/5 513/8/5
f 515/9/5 514/9/5 513/9/5
f 516/9/5 514/9/5 515/9/5
f 517/9/5 515/9/5 513/9/5
f 517/8/5 516/8/5 515/8/5
f 518/9/5 514/9/5 516/9/5
f 518/8/5 516/8/5 517/8/5
f 519/9/5 517/9/5 513/9/5
f 519/9/5 518/9/5 517/9/5
f 520/9/5 514/9/5 518/9/5
f 520/9/5 518/9/5 519/9/5
f 521/8/5 520/8/5 519/8/5
f 522/8/5 520/8/5 521/8/5
f 527/8/5 524/8/5 523/8/5
f 528/8/5 524/8/5 527/8/5
f 529/8/5 526/8/5 525/8/5
f 530/8/5 526/8/5 529/8/5
f 531/9/5 528/9/5 527/9/5
f 532/9/5 528/9/5 531/9/5
f 533/9/5 530/9/5 529/9/5
f 534/9/5 530/9/5 533/9/5
f 535/8/5 532/8/5 531/8/5
f 536/8/5 532/8/5 535/8/5
f 537/8/5 534/8/5 533/8/5
f 538/8/5 534/8/5 537/8/5
f 543/8/5 540/8/5 539/8/5
f 544/8/5 540/8/5 543/8/5
f 545/8/5 542/8/5 541/8/5
f 546/8/5 542/8/5 545/8/5
f 547/9/5 544/9/5 543/9/5
f 548/9/5 544/9/5 547/9/5
f 549/9/5 546/9/5 545/9/5
f 550/9/5 546/9/5 549/9/5
f 551/8/5 548/8/5 547/8/5
f 552/8/5 548/8/5 551/8/5
f 553/8/5 550/8/5 549/8/5
f 554/8/5 550/8/5 553/8/5
f 559/8/5 556/8/5 555/8/5
f 560/8/5 556/8/5 559/8/5
f 561/8/5 558/8/5 557/8/5
f 562/8/5 558/8/5 561/8/5
f 563/9/5 560/9/5 559/9/5
f 564/9/5 560/9/5 563/9/5
f 565/9/5 562/9/5 561/9/5
f 566/9/5 562/9/5 565/9/5
f 567/8/5 564/8/5 563/8/5
f 568/8/5 564/8/5 567/8/5
f 569/8/5 566/8/5 565/8/5
f 570/8/5 566/8/5 569/8/5
f 575/8/5 572/8/5 571/8/5
f 576/8/5 572/8/5 575/8/5
f 577/8/5 574/8/5 573/8/5
f 578/8/5 574/8/5 577/8/5
f 579/9/5 576/9/5 575/9/5
f 580/9/5 576/9/5 579/9/5
f 581/9/5 578/9/5 577/9/5
f 582/9/5 578/9/5 581/9/5
f 583/8/5 580/8/5 579/8/5
f 584/8/5 580/8/5 583/8/5
f 585/8/5 582/8/5 581/8/5
f 586/8/5 582/8/5 585/8/5
f 591/8/5 588/8/5 587/8/5
f 592/8/5 588/8/5 591/8/5
f 593/8/5 590/8/5 589/8/5
f 594/8/5 590/8/5 593/8/5
f 595/9/5 592/9/5 591/9/5
f 596/9/5 592/9/5 595/9/5
f 597/9/5 594/9/5 593/9/5
f 598/9/5 594/9/5 597/9/5
f 599/8/5 596/8/5 595/8/5
f 600/8/5 596/8/5 599/8/5
f 601/8/5 598/8/5 597/8/5
f 602/8/5 598/8/5 601/8/5
f 607/4/5 604/4/5 603/4/5
f 608/4/5 606/4/5 605/4/5
f 609/4/5 607/4/5 603/4/5
f 610/4/5 606/4/5 608/4/5
f 611/4/5 609/4/5 603/4/5
f 612/4/5 609/4/5 611/4/5
f 617/4/5 606/4/5 610/4/5
f 618/4/5 606/4/5 617/4/5
f 619/5/5 614/5/5 613/5/5
f 620/5/5 614/5/5 619/5/5
f 621/5/5 616/5/5 615/5/5
f 622/5/5 616/5/5 621/5/5
f 625/8/5 624/8/5 623/8/5
f 626/8/5 624/8/5 625/8/5
f 627/9/5 626/9/5 625/9/5
f 628/9/5 626/9/5 627/9/5
f 629/8/5 628/8/5 627/8/5
f 630/8/5 628/8/5 629/8/5
f 631/8/5 628/8/5 630/8/5
f 632/8/5 628/8/5 631/8/5
f 633/8/5 628/8/5 632/8/5
f 634/8/5 628/8/5 633/8/5
f 639/7/5 636/7/5 635/7/5
f 640/6/5 637/6/5 636/6/5
f 640/7/5 636/7/5 639/7/5
f 641/7/5 638/7/5 637/7/5
f 641/6/5 637/6/5 640/6/5
f 642/7/5 638/7/5 641/7/5
f 647/7/5 644/7/5 643/7/5
f 648/7/5 644/7/5 647/7/5
f 649/7/5 646/7/5 645/7/5
f 650/7/5 646/7/5 649/7/5
f 655/7/5 652/7/5 651/7/5
f 656/7/5 652/7/5 655/7/5
f 657/7/5 654/7/5 653/7/5
f 658/7/5 654/7/5 657/7/5
f 663/8/5 660/8/5 659/8/5
f 664/8/5 660/8/5 663/8/5
f 665/8/5 662/8/5 661/8/5
f 666/8/5 662/8/5 665/8/5
f 667/9/5 664/9/5 663/9/5
f 668/9/5 664/9/5 667/9/5
f 669/9/5 666/9/5 665/9/5
f 670/9/5 666/9/5 669/9/5
f 671/8/5 668/8/5 667/8/5
f 672/8/5 668/8/5 671/8/5
f 673/8/5 670/8/5 669/8/5
f 674/8/5 670/8/5 673/8/5
f 675/4/6 676/4/6 677/4/6
f 677/4/6 676/4/6 678/4/6
f 679/8/6 680/8/6 683/8/6
f 683/8/6 680/8/6 684/8/6
f 681/8/6 682/8/6 685/8/6
f 685/8/6 682/8/6 686/8/6
f 683/9/6 684/9/6 687/9/6
f 687/9/6 684/9/6 688/9/6
f 685/9/6 686/9/6 689/9/6
f 689/9/6 686/9/6 690/9/6
f 687/8/6 688/8/6 691/8/6
f 691/8/6 688/8/6 692/8/6
f 689/8/6 690/8/6 693/8/6
f 693/8/6 690/8/6 694/8/6
f 695/8/6 696/8/6 699/8/6
f 699/8/6 696/8/6 700/8/6
f 697/8/6 698/8/6 701/8/6
f 701/8/6 698/8/6 702/8/6
f 699/9/6 700/9/6 703/9/6
f 703/9/6 700/9/6 704/9/6
f 701/9/6 702/9/6 705/9/6
f 705/9/6 702/9/6 706/9/6
f 703/8/6 704/8/6 707/8/6
f 707/8/6 704/8/6 708/8/6
f 705/8/6 706/8/6 709/8/6
f 709/8/6 706/8/6 710/8/6
f 711/8/6 712/8/6 715/8/6
f 715/8/6 712/8/6 716/8/6
f 713/8/6 714/8/6 717/8/6
f 717/8/6 714/8/6 718/8/6
f 715/9/6 716/9/6 719/9/6
f 719/9/6 716/9/6 720/9/6
f 717/9/6 718/9/6 721/9/6
f 721/9/6 718/9/6 722/9/6
f 719/8/6 720/8/6 723/8/6
f 723/8/6 720/8/6 724/8/6
f 721/8/6 722/8/6 725/8/6
f 725/8/6 722/8/6 726/8/6
f 727/8/6 728/8/6 731/8/6
f 731/8/6 728/8/6 732/8/6
f 729/8/6 730/8/6 733/8/6
f 733/8/6 730/8/6 734/8/6
f 731/9/6 732/9/6 735/9/6
f 735/9/6 732/9/6 736/9/6
f 733/9/6 734/9/6 737/9/6
f 737/9/6 734/9/6 738/9/6
f 735/8/6 736/8/6 739/8/6
f 739/8/6 736/8/6 740/8/6
f 737/8/6 738/8/6 741/8/6
f 741/8/6 738/8/6 742/8/6
f 743/1/6 744/1/6 745/1/6
f 745/1/6 744/1/6 746/1/6
f 746/1/6 744/1/6 747/1/6
f 747/1/6 744/1/6 748/1/6
f 748/1/6 744/1/6 749/1/6
f 749/1/6 744/1/6 750/1/6
f 751/5/6 752/5/6 755/5/6
f 755/5/6 752/5/6 756/5/6
f 753/5/6 754/5/6 757/5/6
f 757/5/6 754/5/6 758/5/6
f 759/7/6 760/7/6 767/7/6
f 760/6/6 761/6/6 768/6/6
f 767/7/6 760/7/6 768/7/6
f 761/7/6 762/7/6 769/7/6
f 768/6/6 761/6/6 769/6/6
f 762/6/6 763/6/6 770/6/6
f 769/7/6 762/7/6 770/7/6
f 763/7/6 764/7/6 771/7/6
f 770/6/6 763/6/6 771/6/6
f 764/6/6 765/6/6 772/6/6
f 771/7/6 764/7/6 772/7/6
f 765/7/6 766/7/6 773/7/6
f 772/6/6 765/6/6 773/6/6
f 773/7/6 766/7/6 774/7/6
f 775/4/6 776/4/6 777/4/6
f 777/4/6 776/4/6 778/4/6
f 777/4/6 778/4/6 779/4/6
f 779/4/6 778/4/6 780/4/6
f 779/4/6 780/4/6 781/4/6
f 781/4/6 780/4/6 782/4/6
f 783/4/6 784/4/6 789/4/6
f 784/8/6 785/8/6 790/8/6
f 789/4/6 784/4/6 790/4/6
f 790/8/6 785/8/6 791/8/6
f 786/8/6 787/8/6 792/8/6
f 787/4/6 788/4/6 793/4/6
f 792/8/6 787/8/6 793/8/6
f 793/4/6 788/4/6 794/4/6
