# MagicaVoxel @ Ephtracy

# material
mtllib tower_weapon2.mtl
usemtl palette

# normals
vn -1 0 0
vn 1 0 0
vn 0 0 1
vn 0 0 -1
vn 0 -1 0
vn 0 1 0

# texcoords
vt 0.0253906 0.5
vt 0.400391 0.5
vt 0.791016 0.5
vt 0.810547 0.5
vt 0.962891 0.5
vt 0.970703 0.5
vt 0.978516 0.5
vt 0.986328 0.5

# verts
v -12 6 3
v -12 6 -3
v -12 22 3
v -12 22 -3
v -11 5 3
v -11 5 2
v -11 5 -2
v -11 5 -3
v -11 6 3
v -11 6 2
v -11 6 -2
v -11 6 -3
v -10 4 3
v -10 4 2
v -10 4 -2
v -10 4 -3
v -10 5 3
v -10 5 2
v -10 5 -2
v -10 5 -3
v -9 3 3
v -9 3 2
v -9 3 -2
v -9 3 -3
v -9 4 3
v -9 4 2
v -9 4 -2
v -9 4 -3
v -8 2 3
v -8 2 2
v -8 2 -2
v -8 2 -3
v -8 3 3
v -8 3 2
v -8 3 -2
v -8 3 -3
v -7 1 3
v -7 1 2
v -7 1 -2
v -7 1 -3
v -7 2 3
v -7 2 2
v -7 2 -2
v -7 2 -3
v -6 0 3
v -6 0 2
v -6 0 -2
v -6 0 -3
v -6 1 3
v -6 1 2
v -6 1 -2
v -6 1 -3
v -5 4 2
v -5 4 -2
v -5 4 -3
v -5 5 2
v -5 5 -3
v -5 8 2
v -5 8 -3
v -5 12 3
v -5 12 2
v -5 12 -2
v -5 12 -3
v -5 19 3
v -5 19 2
v -5 19 -2
v -5 19 -3
v -4 15 4
v -4 15 3
v -4 16 4
v -4 16 3
v -4 17 4
v -4 17 3
v -4 18 4
v -4 18 3
v -3 14 4
v -3 14 3
v -3 15 4
v -3 15 3
v -2 6 -3
v -2 6 -4
v -2 8 -3
v -2 12 -3
v -2 13 4
v -2 13 3
v -2 14 4
v -2 14 3
v -2 16 -3
v -2 16 -4
v 1 6 -3
v 1 6 -4
v 1 8 -3
v 1 12 -3
v 1 16 -3
v 1 16 -4
v 2 19 3
v 2 19 2
v 2 19 -2
v 2 19 -3
v 2 21 2
v 2 21 -2
v 2 22 3
v 2 22 -3
v 5 3 3
v 5 3 2
v 5 4 3
v 5 4 2
v 6 4 3
v 6 4 2
v 6 4 -2
v 6 4 -3
v 6 5 3
v 6 5 2
v 6 5 -2
v 6 5 -3
v 7 5 3
v 7 5 2
v 7 5 -2
v 7 5 -3
v 7 6 3
v 7 6 2
v 7 6 -2
v 7 6 -3
v 8 6 3
v 8 6 2
v 8 6 -2
v 8 6 -3
v 8 7 3
v 8 7 2
v 8 7 -2
v 8 7 -3
v 9 7 3
v 9 7 2
v 9 7 -2
v 9 7 -3
v 9 19 3
v 9 19 2
v 9 19 -2
v 9 19 -3
v -9 7 3
v -9 7 2
v -9 7 -2
v -9 7 -3
v -9 19 3
v -9 19 2
v -9 19 -2
v -9 19 -3
v -8 6 3
v -8 6 2
v -8 6 -2
v -8 6 -3
v -8 7 3
v -8 7 2
v -8 7 -2
v -8 7 -3
v -7 5 3
v -7 5 2
v -7 5 -2
v -7 5 -3
v -7 6 3
v -7 6 2
v -7 6 -2
v -7 6 -3
v -6 4 3
v -6 4 2
v -6 4 -2
v -6 4 -3
v -6 5 3
v -6 5 2
v -6 5 -2
v -6 5 -3
v -5 3 3
v -5 3 2
v -5 4 3
v -5 4 2
v -2 19 3
v -2 19 2
v -2 19 -2
v -2 19 -3
v -2 21 2
v -2 21 -2
v -2 22 3
v -2 22 -3
v -1 6 -3
v -1 6 -4
v -1 8 -3
v -1 12 -3
v -1 16 -3
v -1 16 -4
v 2 6 -3
v 2 6 -4
v 2 8 -3
v 2 12 -3
v 2 13 4
v 2 13 3
v 2 14 4
v 2 14 3
v 2 16 -3
v 2 16 -4
v 3 14 4
v 3 14 3
v 3 15 4
v 3 15 3
v 4 15 4
v 4 15 3
v 4 16 4
v 4 16 3
v 4 17 4
v 4 17 3
v 4 18 4
v 4 18 3
v 5 4 2
v 5 4 -2
v 5 4 -3
v 5 5 2
v 5 5 -3
v 5 8 2
v 5 8 -3
v 5 12 3
v 5 12 2
v 5 12 -2
v 5 12 -3
v 5 19 3
v 5 19 2
v 5 19 -2
v 5 19 -3
v 6 0 3
v 6 0 2
v 6 0 -2
v 6 0 -3
v 6 1 3
v 6 1 2
v 6 1 -2
v 6 1 -3
v 7 1 3
v 7 1 2
v 7 1 -2
v 7 1 -3
v 7 2 3
v 7 2 2
v 7 2 -2
v 7 2 -3
v 8 2 3
v 8 2 2
v 8 2 -2
v 8 2 -3
v 8 3 3
v 8 3 2
v 8 3 -2
v 8 3 -3
v 9 3 3
v 9 3 2
v 9 3 -2
v 9 3 -3
v 9 4 3
v 9 4 2
v 9 4 -2
v 9 4 -3
v 10 4 3
v 10 4 2
v 10 4 -2
v 10 4 -3
v 10 5 3
v 10 5 2
v 10 5 -2
v 10 5 -3
v 11 5 3
v 11 5 2
v 11 5 -2
v 11 5 -3
v 11 6 3
v 11 6 2
v 11 6 -2
v 11 6 -3
v 12 6 3
v 12 6 -3
v 12 22 3
v 12 22 -3
v -4 15 4
v -4 16 4
v -4 17 4
v -4 18 4
v -3 14 4
v -3 15 4
v -3 16 4
v -3 17 4
v -3 18 4
v -2 13 4
v -2 14 4
v -2 15 4
v -2 16 4
v -2 17 4
v -2 18 4
v -1 13 4
v -1 14 4
v -1 15 4
v -1 16 4
v -1 17 4
v -1 18 4
v 1 13 4
v 1 14 4
v 1 15 4
v 1 16 4
v 1 17 4
v 1 18 4
v 2 13 4
v 2 14 4
v 2 15 4
v 2 16 4
v 2 17 4
v 2 18 4
v 3 14 4
v 3 15 4
v 3 16 4
v 3 17 4
v 3 18 4
v 4 15 4
v 4 16 4
v 4 17 4
v 4 18 4
v -12 6 3
v -12 22 3
v -11 5 3
v -11 6 3
v -11 22 3
v -10 4 3
v -10 5 3
v -9 3 3
v -9 4 3
v -9 7 3
v -9 19 3
v -8 2 3
v -8 3 3
v -8 6 3
v -8 7 3
v -7 1 3
v -7 2 3
v -7 5 3
v -7 6 3
v -6 0 3
v -6 1 3
v -6 4 3
v -6 5 3
v -5 2 3
v -5 3 3
v -5 4 3
v -5 12 3
v -5 19 3
v -4 15 3
v -4 16 3
v -4 17 3
v -4 18 3
v -3 14 3
v -3 15 3
v -3 18 3
v -2 13 3
v -2 14 3
v -2 18 3
v -2 19 3
v -2 22 3
v -1 13 3
v -1 18 3
v 1 13 3
v 1 18 3
v 2 13 3
v 2 14 3
v 2 18 3
v 2 19 3
v 2 22 3
v 3 14 3
v 3 15 3
v 3 18 3
v 4 15 3
v 4 16 3
v 4 17 3
v 4 18 3
v 5 2 3
v 5 3 3
v 5 4 3
v 5 12 3
v 5 19 3
v 6 0 3
v 6 1 3
v 6 4 3
v 6 5 3
v 7 1 3
v 7 2 3
v 7 5 3
v 7 6 3
v 8 2 3
v 8 3 3
v 8 6 3
v 8 7 3
v 9 3 3
v 9 4 3
v 9 7 3
v 9 19 3
v 10 4 3
v 10 5 3
v 11 5 3
v 11 6 3
v 11 22 3
v 12 6 3
v 12 22 3
v -5 3 2
v -5 4 2
v -5 5 2
v -5 8 2
v 5 3 2
v 5 4 2
v 5 5 2
v 5 8 2
v -2 8 -3
v -2 12 -3
v -1 8 -3
v -1 12 -3
v 1 8 -3
v 1 12 -3
v 2 8 -3
v 2 12 -3
v -12 6 -3
v -12 22 -3
v -11 5 -3
v -11 6 -3
v -11 22 -3
v -10 4 -3
v -10 5 -3
v -9 3 -3
v -9 4 -3
v -9 7 -3
v -9 19 -3
v -8 2 -3
v -8 3 -3
v -8 6 -3
v -8 7 -3
v -7 1 -3
v -7 2 -3
v -7 5 -3
v -7 6 -3
v -6 0 -3
v -6 1 -3
v -6 4 -3
v -6 5 -3
v -5 2 -3
v -5 3 -3
v -5 4 -3
v -5 5 -3
v -5 8 -3
v -5 12 -3
v -5 19 -3
v -2 6 -3
v -2 8 -3
v -2 12 -3
v -2 16 -3
v -2 18 -3
v -2 19 -3
v -2 22 -3
v -1 6 -3
v -1 8 -3
v -1 12 -3
v -1 16 -3
v 1 6 -3
v 1 8 -3
v 1 12 -3
v 1 16 -3
v 2 6 -3
v 2 8 -3
v 2 12 -3
v 2 16 -3
v 2 18 -3
v 2 19 -3
v 2 22 -3
v 5 2 -3
v 5 3 -3
v 5 4 -3
v 5 5 -3
v 5 8 -3
v 5 12 -3
v 5 19 -3
v 6 0 -3
v 6 1 -3
v 6 4 -3
v 6 5 -3
v 7 1 -3
v 7 2 -3
v 7 5 -3
v 7 6 -3
v 8 2 -3
v 8 3 -3
v 8 6 -3
v 8 7 -3
v 9 3 -3
v 9 4 -3
v 9 7 -3
v 9 19 -3
v 10 4 -3
v 10 5 -3
v 11 5 -3
v 11 6 -3
v 11 22 -3
v 12 6 -3
v 12 22 -3
v -2 6 -4
v -2 16 -4
v -1 6 -4
v -1 16 -4
v 1 6 -4
v 1 16 -4
v 2 6 -4
v 2 16 -4
v -6 0 3
v 6 0 3
v -6 0 2
v 6 0 2
v -1 0 1
v 1 0 1
v -1 0 -1
v 1 0 -1
v -6 0 -2
v 6 0 -2
v -6 0 -3
v 6 0 -3
v -7 1 3
v -6 1 3
v 6 1 3
v 7 1 3
v -7 1 2
v -6 1 2
v 6 1 2
v 7 1 2
v -7 1 -2
v -6 1 -2
v 6 1 -2
v 7 1 -2
v -7 1 -3
v -6 1 -3
v 6 1 -3
v 7 1 -3
v -8 2 3
v -7 2 3
v 7 2 3
v 8 2 3
v -8 2 2
v -7 2 2
v 7 2 2
v 8 2 2
v -8 2 -2
v -7 2 -2
v 7 2 -2
v 8 2 -2
v -8 2 -3
v -7 2 -3
v 7 2 -3
v 8 2 -3
v -9 3 3
v -8 3 3
v 8 3 3
v 9 3 3
v -9 3 2
v -8 3 2
v 8 3 2
v 9 3 2
v -9 3 -2
v -8 3 -2
v 8 3 -2
v 9 3 -2
v -9 3 -3
v -8 3 -3
v 8 3 -3
v 9 3 -3
v -10 4 3
v -9 4 3
v 9 4 3
v 10 4 3
v -10 4 2
v -9 4 2
v 9 4 2
v 10 4 2
v -10 4 -2
v -9 4 -2
v 9 4 -2
v 10 4 -2
v -10 4 -3
v -9 4 -3
v 9 4 -3
v 10 4 -3
v -11 5 3
v -10 5 3
v 10 5 3
v 11 5 3
v -11 5 2
v -10 5 2
v 10 5 2
v 11 5 2
v -11 5 -2
v -10 5 -2
v 10 5 -2
v 11 5 -2
v -11 5 -3
v -10 5 -3
v 10 5 -3
v 11 5 -3
v -12 6 3
v -11 6 3
v 11 6 3
v 12 6 3
v -11 6 2
v 11 6 2
v -11 6 -2
v 11 6 -2
v -12 6 -3
v -11 6 -3
v -2 6 -3
v -1 6 -3
v 1 6 -3
v 2 6 -3
v 11 6 -3
v 12 6 -3
v -2 6 -4
v -1 6 -4
v 1 6 -4
v 2 6 -4
v -5 12 3
v 5 12 3
v -5 12 2
v 5 12 2
v -5 12 -2
v 5 12 -2
v -5 12 -3
v -2 12 -3
v -1 12 -3
v 1 12 -3
v 2 12 -3
v 5 12 -3
v -2 13 4
v -1 13 4
v 1 13 4
v 2 13 4
v -2 13 3
v -1 13 3
v 1 13 3
v 2 13 3
v -3 14 4
v -2 14 4
v 2 14 4
v 3 14 4
v -3 14 3
v -2 14 3
v 2 14 3
v 3 14 3
v -4 15 4
v -3 15 4
v 3 15 4
v 4 15 4
v -4 15 3
v -3 15 3
v 3 15 3
v 4 15 3
v -9 19 3
v -5 19 3
v 5 19 3
v 9 19 3
v -9 19 2
v -5 19 2
v 5 19 2
v 9 19 2
v -9 19 -2
v -5 19 -2
v 5 19 -2
v 9 19 -2
v -9 19 -3
v -5 19 -3
v 5 19 -3
v 9 19 -3
v -5 3 3
v 5 3 3
v -5 3 2
v 5 3 2
v -6 4 3
v -5 4 3
v 5 4 3
v 6 4 3
v -6 4 2
v -5 4 2
v 5 4 2
v 6 4 2
v -6 4 -2
v -5 4 -2
v 5 4 -2
v 6 4 -2
v -6 4 -3
v -5 4 -3
v 5 4 -3
v 6 4 -3
v -7 5 3
v -6 5 3
v 6 5 3
v 7 5 3
v -7 5 2
v -6 5 2
v 6 5 2
v 7 5 2
v -7 5 -2
v -6 5 -2
v 6 5 -2
v 7 5 -2
v -7 5 -3
v -6 5 -3
v 6 5 -3
v 7 5 -3
v -8 6 3
v -7 6 3
v 7 6 3
v 8 6 3
v -8 6 2
v -7 6 2
v 7 6 2
v 8 6 2
v -8 6 -2
v -7 6 -2
v 7 6 -2
v 8 6 -2
v -8 6 -3
v -7 6 -3
v 7 6 -3
v 8 6 -3
v -9 7 3
v -8 7 3
v 8 7 3
v 9 7 3
v -9 7 2
v -8 7 2
v 8 7 2
v 9 7 2
v -9 7 -2
v -8 7 -2
v 8 7 -2
v 9 7 -2
v -9 7 -3
v -8 7 -3
v 8 7 -3
v 9 7 -3
v -5 8 2
v 5 8 2
v -5 8 -3
v -2 8 -3
v -1 8 -3
v 1 8 -3
v 2 8 -3
v 5 8 -3
v -2 16 -3
v -1 16 -3
v 1 16 -3
v 2 16 -3
v -2 16 -4
v -1 16 -4
v 1 16 -4
v 2 16 -4
v -4 18 4
v -3 18 4
v -2 18 4
v -1 18 4
v 1 18 4
v 2 18 4
v 3 18 4
v 4 18 4
v -4 18 3
v -3 18 3
v -2 18 3
v -1 18 3
v 1 18 3
v 2 18 3
v 3 18 3
v 4 18 3
v -2 19 3
v 2 19 3
v -2 19 2
v 2 19 2
v -2 19 -2
v 2 19 -2
v -2 19 -3
v 2 19 -3
v -12 22 3
v -11 22 3
v -2 22 3
v 2 22 3
v 11 22 3
v 12 22 3
v -12 22 -3
v -11 22 -3
v -2 22 -3
v 2 22 -3
v 11 22 -3
v 12 22 -3

# faces
f 3/3/1 2/3/1 1/3/1
f 4/3/1 2/3/1 3/3/1
f 9/7/1 6/7/1 5/7/1
f 10/8/1 7/8/1 6/8/1
f 10/7/1 6/7/1 9/7/1
f 11/7/1 8/7/1 7/7/1
f 11/8/1 7/8/1 10/8/1
f 12/7/1 8/7/1 11/7/1
f 17/7/1 14/7/1 13/7/1
f 18/8/1 15/8/1 14/8/1
f 18/7/1 14/7/1 17/7/1
f 19/7/1 16/7/1 15/7/1
f 19/8/1 15/8/1 18/8/1
f 20/7/1 16/7/1 19/7/1
f 25/7/1 22/7/1 21/7/1
f 26/8/1 23/8/1 22/8/1
f 26/7/1 22/7/1 25/7/1
f 27/7/1 24/7/1 23/7/1
f 27/8/1 23/8/1 26/8/1
f 28/7/1 24/7/1 27/7/1
f 33/7/1 30/7/1 29/7/1
f 34/8/1 31/8/1 30/8/1
f 34/7/1 30/7/1 33/7/1
f 35/7/1 32/7/1 31/7/1
f 35/8/1 31/8/1 34/8/1
f 36/7/1 32/7/1 35/7/1
f 41/7/1 38/7/1 37/7/1
f 42/8/1 39/8/1 38/8/1
f 42/7/1 38/7/1 41/7/1
f 43/7/1 40/7/1 39/7/1
f 43/8/1 39/8/1 42/8/1
f 44/7/1 40/7/1 43/7/1
f 49/7/1 46/7/1 45/7/1
f 50/8/1 47/8/1 46/8/1
f 50/7/1 46/7/1 49/7/1
f 51/7/1 48/7/1 47/7/1
f 51/8/1 47/8/1 50/8/1
f 52/7/1 48/7/1 51/7/1
f 56/2/1 54/2/1 53/2/1
f 56/2/1 55/2/1 54/2/1
f 57/2/1 55/2/1 56/2/1
f 58/1/1 57/1/1 56/1/1
f 59/1/1 57/1/1 58/1/1
f 64/7/1 61/7/1 60/7/1
f 65/8/1 62/8/1 61/8/1
f 65/7/1 61/7/1 64/7/1
f 66/7/1 63/7/1 62/7/1
f 66/8/1 62/8/1 65/8/1
f 67/7/1 63/7/1 66/7/1
f 70/6/1 69/6/1 68/6/1
f 71/6/1 69/6/1 70/6/1
f 72/5/1 71/5/1 70/5/1
f 73/5/1 71/5/1 72/5/1
f 74/6/1 73/6/1 72/6/1
f 75/6/1 73/6/1 74/6/1
f 78/6/1 77/6/1 76/6/1
f 79/6/1 77/6/1 78/6/1
f 82/4/1 81/4/1 80/4/1
f 83/4/1 81/4/1 82/4/1
f 86/6/1 85/6/1 84/6/1
f 87/6/1 85/6/1 86/6/1
f 88/4/1 81/4/1 83/4/1
f 89/4/1 81/4/1 88/4/1
f 92/4/1 91/4/1 90/4/1
f 93/4/1 91/4/1 92/4/1
f 94/4/1 91/4/1 93/4/1
f 95/4/1 91/4/1 94/4/1
f 100/7/1 97/7/1 96/7/1
f 100/8/1 98/8/1 97/8/1
f 101/7/1 99/7/1 98/7/1
f 101/8/1 98/8/1 100/8/1
f 102/7/1 100/7/1 96/7/1
f 102/7/1 101/7/1 100/7/1
f 103/7/1 99/7/1 101/7/1
f 103/7/1 101/7/1 102/7/1
f 106/7/1 105/7/1 104/7/1
f 107/7/1 105/7/1 106/7/1
f 112/7/1 109/7/1 108/7/1
f 113/8/1 110/8/1 109/8/1
f 113/7/1 109/7/1 112/7/1
f 114/7/1 111/7/1 110/7/1
f 114/8/1 110/8/1 113/8/1
f 115/7/1 111/7/1 114/7/1
f 120/7/1 117/7/1 116/7/1
f 121/8/1 118/8/1 117/8/1
f 121/7/1 117/7/1 120/7/1
f 122/7/1 119/7/1 118/7/1
f 122/8/1 118/8/1 121/8/1
f 123/7/1 119/7/1 122/7/1
f 128/7/1 125/7/1 124/7/1
f 129/8/1 126/8/1 125/8/1
f 129/7/1 125/7/1 128/7/1
f 130/7/1 127/7/1 126/7/1
f 130/8/1 126/8/1 129/8/1
f 131/7/1 127/7/1 130/7/1
f 136/7/1 133/7/1 132/7/1
f 137/8/1 134/8/1 133/8/1
f 137/7/1 133/7/1 136/7/1
f 138/7/1 135/7/1 134/7/1
f 138/8/1 134/8/1 137/8/1
f 139/7/1 135/7/1 138/7/1
f 140/7/2 141/7/2 144/7/2
f 141/8/2 142/8/2 145/8/2
f 144/7/2 141/7/2 145/7/2
f 142/7/2 143/7/2 146/7/2
f 145/8/2 142/8/2 146/8/2
f 146/7/2 143/7/2 147/7/2
f 148/7/2 149/7/2 152/7/2
f 149/8/2 150/8/2 153/8/2
f 152/7/2 149/7/2 153/7/2
f 150/7/2 151/7/2 154/7/2
f 153/8/2 150/8/2 154/8/2
f 154/7/2 151/7/2 155/7/2
f 156/7/2 157/7/2 160/7/2
f 157/8/2 158/8/2 161/8/2
f 160/7/2 157/7/2 161/7/2
f 158/7/2 159/7/2 162/7/2
f 161/8/2 158/8/2 162/8/2
f 162/7/2 159/7/2 163/7/2
f 164/7/2 165/7/2 168/7/2
f 165/8/2 166/8/2 169/8/2
f 168/7/2 165/7/2 169/7/2
f 166/7/2 167/7/2 170/7/2
f 169/8/2 166/8/2 170/8/2
f 170/7/2 167/7/2 171/7/2
f 172/7/2 173/7/2 174/7/2
f 174/7/2 173/7/2 175/7/2
f 176/7/2 177/7/2 180/7/2
f 177/8/2 178/8/2 180/8/2
f 178/7/2 179/7/2 181/7/2
f 180/8/2 178/8/2 181/8/2
f 176/7/2 180/7/2 182/7/2
f 180/7/2 181/7/2 182/7/2
f 181/7/2 179/7/2 183/7/2
f 182/7/2 181/7/2 183/7/2
f 184/4/2 185/4/2 186/4/2
f 186/4/2 185/4/2 187/4/2
f 187/4/2 185/4/2 188/4/2
f 188/4/2 185/4/2 189/4/2
f 190/4/2 191/4/2 192/4/2
f 192/4/2 191/4/2 193/4/2
f 194/6/2 195/6/2 196/6/2
f 196/6/2 195/6/2 197/6/2
f 193/4/2 191/4/2 198/4/2
f 198/4/2 191/4/2 199/4/2
f 200/6/2 201/6/2 202/6/2
f 202/6/2 201/6/2 203/6/2
f 204/6/2 205/6/2 206/6/2
f 206/6/2 205/6/2 207/6/2
f 206/5/2 207/5/2 208/5/2
f 208/5/2 207/5/2 209/5/2
f 208/6/2 209/6/2 210/6/2
f 210/6/2 209/6/2 211/6/2
f 212/2/2 213/2/2 215/2/2
f 213/2/2 214/2/2 215/2/2
f 215/2/2 214/2/2 216/2/2
f 215/1/2 216/1/2 217/1/2
f 217/1/2 216/1/2 218/1/2
f 219/7/2 220/7/2 223/7/2
f 220/8/2 221/8/2 224/8/2
f 223/7/2 220/7/2 224/7/2
f 221/7/2 222/7/2 225/7/2
f 224/8/2 221/8/2 225/8/2
f 225/7/2 222/7/2 226/7/2
f 227/7/2 228/7/2 231/7/2
f 228/8/2 229/8/2 232/8/2
f 231/7/2 228/7/2 232/7/2
f 229/7/2 230/7/2 233/7/2
f 232/8/2 229/8/2 233/8/2
f 233/7/2 230/7/2 234/7/2
f 235/7/2 236/7/2 239/7/2
f 236/8/2 237/8/2 240/8/2
f 239/7/2 236/7/2 240/7/2
f 237/7/2 238/7/2 241/7/2
f 240/8/2 237/8/2 241/8/2
f 241/7/2 238/7/2 242/7/2
f 243/7/2 244/7/2 247/7/2
f 244/8/2 245/8/2 248/8/2
f 247/7/2 244/7/2 248/7/2
f 245/7/2 246/7/2 249/7/2
f 248/8/2 245/8/2 249/8/2
f 249/7/2 246/7/2 250/7/2
f 251/7/2 252/7/2 255/7/2
f 252/8/2 253/8/2 256/8/2
f 255/7/2 252/7/2 256/7/2
f 253/7/2 254/7/2 257/7/2
f 256/8/2 253/8/2 257/8/2
f 257/7/2 254/7/2 258/7/2
f 259/7/2 260/7/2 263/7/2
f 260/8/2 261/8/2 264/8/2
f 263/7/2 260/7/2 264/7/2
f 261/7/2 262/7/2 265/7/2
f 264/8/2 261/8/2 265/8/2
f 265/7/2 262/7/2 266/7/2
f 267/7/2 268/7/2 271/7/2
f 268/8/2 269/8/2 272/8/2
f 271/7/2 268/7/2 272/7/2
f 269/7/2 270/7/2 273/7/2
f 272/8/2 269/8/2 273/8/2
f 273/7/2 270/7/2 274/7/2
f 275/3/2 276/3/2 277/3/2
f 277/3/2 276/3/2 278/3/2
f 284/6/3 280/6/3 279/6/3
f 285/5/3 281/5/3 280/5/3
f 285/6/3 280/6/3 284/6/3
f 286/6/3 282/6/3 281/6/3
f 286/5/3 281/5/3 285/5/3
f 287/6/3 282/6/3 286/6/3
f 289/6/3 284/6/3 283/6/3
f 290/5/3 285/5/3 284/5/3
f 290/6/3 284/6/3 289/6/3
f 291/6/3 286/6/3 285/6/3
f 291/5/3 285/5/3 290/5/3
f 292/5/3 287/5/3 286/5/3
f 292/6/3 286/6/3 291/6/3
f 293/5/3 287/5/3 292/5/3
f 294/6/3 289/6/3 288/6/3
f 295/5/3 290/5/3 289/5/3
f 295/6/3 289/6/3 294/6/3
f 296/6/3 291/6/3 290/6/3
f 296/5/3 290/5/3 295/5/3
f 297/5/3 292/5/3 291/5/3
f 297/6/3 291/6/3 296/6/3
f 298/6/3 293/6/3 292/6/3
f 298/5/3 292/5/3 297/5/3
f 299/6/3 293/6/3 298/6/3
f 300/5/3 295/5/3 294/5/3
f 301/6/3 296/6/3 295/6/3
f 301/5/3 295/5/3 300/5/3
f 302/5/3 297/5/3 296/5/3
f 302/6/3 296/6/3 301/6/3
f 303/6/3 298/6/3 297/6/3
f 303/5/3 297/5/3 302/5/3
f 304/5/3 299/5/3 298/5/3
f 304/6/3 298/6/3 303/6/3
f 305/5/3 299/5/3 304/5/3
f 306/6/3 301/6/3 300/6/3
f 307/5/3 302/5/3 301/5/3
f 307/6/3 301/6/3 306/6/3
f 308/6/3 303/6/3 302/6/3
f 308/5/3 302/5/3 307/5/3
f 309/5/3 304/5/3 303/5/3
f 309/6/3 303/6/3 308/6/3
f 310/6/3 305/6/3 304/6/3
f 310/5/3 304/5/3 309/5/3
f 311/6/3 305/6/3 310/6/3
f 312/6/3 308/6/3 307/6/3
f 313/5/3 309/5/3 308/5/3
f 313/6/3 308/6/3 312/6/3
f 314/6/3 310/6/3 309/6/3
f 314/5/3 309/5/3 313/5/3
f 315/5/3 311/5/3 310/5/3
f 315/6/3 310/6/3 314/6/3
f 316/5/3 311/5/3 315/5/3
f 317/6/3 314/6/3 313/6/3
f 318/5/3 315/5/3 314/5/3
f 318/6/3 314/6/3 317/6/3
f 319/6/3 316/6/3 315/6/3
f 319/5/3 315/5/3 318/5/3
f 320/6/3 316/6/3 319/6/3
f 324/3/3 322/3/3 321/3/3
f 325/3/3 322/3/3 324/3/3
f 327/7/3 324/7/3 323/7/3
f 327/7/3 325/7/3 324/7/3
f 329/7/3 327/7/3 326/7/3
f 330/7/3 325/7/3 327/7/3
f 330/7/3 327/7/3 329/7/3
f 331/7/3 325/7/3 330/7/3
f 333/7/3 329/7/3 328/7/3
f 333/7/3 330/7/3 329/7/3
f 334/7/3 330/7/3 333/7/3
f 335/7/3 330/7/3 334/7/3
f 337/7/3 333/7/3 332/7/3
f 337/7/3 334/7/3 333/7/3
f 338/7/3 334/7/3 337/7/3
f 339/7/3 334/7/3 338/7/3
f 341/7/3 337/7/3 336/7/3
f 341/7/3 338/7/3 337/7/3
f 342/7/3 338/7/3 341/7/3
f 343/7/3 338/7/3 342/7/3
f 344/7/3 341/7/3 340/7/3
f 344/7/3 342/7/3 341/7/3
f 345/7/3 342/7/3 344/7/3
f 346/7/3 342/7/3 345/7/3
f 348/7/3 325/7/3 331/7/3
f 349/7/3 348/7/3 347/7/3
f 350/7/3 348/7/3 349/7/3
f 351/7/3 348/7/3 350/7/3
f 352/7/3 348/7/3 351/7/3
f 353/7/3 349/7/3 347/7/3
f 354/7/3 349/7/3 353/7/3
f 355/7/3 348/7/3 352/7/3
f 356/7/3 353/7/3 347/7/3
f 357/7/3 353/7/3 356/7/3
f 358/7/3 348/7/3 355/7/3
f 359/7/3 325/7/3 348/7/3
f 359/7/3 348/7/3 358/7/3
f 360/7/3 325/7/3 359/7/3
f 361/7/3 356/7/3 347/7/3
f 362/3/3 359/3/3 358/3/3
f 363/7/3 361/7/3 347/7/3
f 364/3/3 359/3/3 362/3/3
f 365/7/3 363/7/3 347/7/3
f 367/3/3 359/3/3 364/3/3
f 368/3/3 359/3/3 367/3/3
f 370/7/3 366/7/3 365/7/3
f 372/7/3 369/7/3 368/7/3
f 372/7/3 368/7/3 367/7/3
f 373/7/3 371/7/3 370/7/3
f 376/7/3 369/7/3 372/7/3
f 377/7/3 344/7/3 340/7/3
f 377/3/3 345/3/3 344/3/3
f 378/3/3 345/3/3 377/3/3
f 380/7/3 376/7/3 375/7/3
f 380/7/3 375/7/3 374/7/3
f 380/7/3 365/7/3 347/7/3
f 380/7/3 370/7/3 365/7/3
f 380/7/3 373/7/3 370/7/3
f 380/7/3 374/7/3 373/7/3
f 381/7/3 369/7/3 376/7/3
f 381/7/3 376/7/3 380/7/3
f 382/7/3 379/7/3 378/7/3
f 382/7/3 378/7/3 377/7/3
f 382/7/3 377/7/3 340/7/3
f 383/7/3 379/7/3 382/7/3
f 384/7/3 379/7/3 383/7/3
f 386/7/3 385/7/3 384/7/3
f 386/7/3 384/7/3 383/7/3
f 387/7/3 385/7/3 386/7/3
f 388/7/3 385/7/3 387/7/3
f 390/7/3 389/7/3 388/7/3
f 390/7/3 388/7/3 387/7/3
f 391/7/3 389/7/3 390/7/3
f 392/7/3 389/7/3 391/7/3
f 394/7/3 393/7/3 392/7/3
f 394/7/3 392/7/3 391/7/3
f 395/7/3 393/7/3 394/7/3
f 396/7/3 393/7/3 395/7/3
f 397/7/3 369/7/3 381/7/3
f 398/7/3 396/7/3 395/7/3
f 398/7/3 397/7/3 396/7/3
f 399/7/3 397/7/3 398/7/3
f 400/7/3 397/7/3 399/7/3
f 401/7/3 397/7/3 400/7/3
f 402/7/3 369/7/3 397/7/3
f 402/7/3 397/7/3 401/7/3
f 403/3/3 402/3/3 401/3/3
f 404/3/3 402/3/3 403/3/3
f 409/2/3 406/2/3 405/2/3
f 409/2/3 407/2/3 406/2/3
f 410/2/3 407/2/3 409/2/3
f 411/1/3 408/1/3 407/1/3
f 411/2/3 407/2/3 410/2/3
f 412/1/3 408/1/3 411/1/3
f 415/4/3 414/4/3 413/4/3
f 416/4/3 414/4/3 415/4/3
f 419/4/3 418/4/3 417/4/3
f 420/4/3 418/4/3 419/4/3
f 421/3/4 422/3/4 424/3/4
f 424/3/4 422/3/4 425/3/4
f 423/7/4 424/7/4 427/7/4
f 424/7/4 425/7/4 427/7/4
f 426/7/4 427/7/4 429/7/4
f 427/7/4 425/7/4 430/7/4
f 429/7/4 427/7/4 430/7/4
f 430/7/4 425/7/4 431/7/4
f 428/7/4 429/7/4 433/7/4
f 429/7/4 430/7/4 433/7/4
f 433/7/4 430/7/4 434/7/4
f 434/7/4 430/7/4 435/7/4
f 432/7/4 433/7/4 437/7/4
f 433/7/4 434/7/4 437/7/4
f 437/7/4 434/7/4 438/7/4
f 438/7/4 434/7/4 439/7/4
f 436/7/4 437/7/4 441/7/4
f 437/7/4 438/7/4 441/7/4
f 441/7/4 438/7/4 442/7/4
f 442/7/4 438/7/4 443/7/4
f 440/7/4 441/7/4 444/7/4
f 441/7/4 442/7/4 444/7/4
f 444/7/4 442/7/4 445/7/4
f 445/7/4 442/7/4 446/7/4
f 431/7/4 425/7/4 450/7/4
f 447/1/4 448/1/4 451/1/4
f 451/1/4 448/1/4 452/1/4
f 449/7/4 450/7/4 453/7/4
f 453/7/4 450/7/4 454/7/4
f 454/7/4 450/7/4 455/7/4
f 450/7/4 425/7/4 456/7/4
f 455/7/4 450/7/4 456/7/4
f 456/7/4 425/7/4 457/7/4
f 447/1/4 451/1/4 458/1/4
f 454/7/4 455/7/4 461/7/4
f 458/1/4 459/1/4 462/1/4
f 447/1/4 458/1/4 462/1/4
f 462/1/4 459/1/4 463/1/4
f 460/7/4 461/7/4 464/7/4
f 461/7/4 455/7/4 465/7/4
f 464/7/4 461/7/4 465/7/4
f 447/1/4 462/1/4 466/1/4
f 465/7/4 455/7/4 469/7/4
f 455/3/4 456/3/4 470/3/4
f 469/7/4 455/7/4 470/7/4
f 470/3/4 456/3/4 471/3/4
f 444/3/4 445/3/4 473/3/4
f 440/7/4 444/7/4 473/7/4
f 446/2/4 447/2/4 474/2/4
f 473/3/4 445/3/4 474/3/4
f 445/2/4 446/2/4 474/2/4
f 474/2/4 447/2/4 475/2/4
f 466/1/4 467/1/4 476/1/4
f 475/2/4 447/2/4 476/2/4
f 447/1/4 466/1/4 476/1/4
f 476/1/4 467/1/4 477/1/4
f 469/7/4 470/7/4 478/7/4
f 471/7/4 472/7/4 478/7/4
f 470/7/4 471/7/4 478/7/4
f 468/7/4 469/7/4 478/7/4
f 478/7/4 472/7/4 479/7/4
f 440/7/4 473/7/4 480/7/4
f 474/7/4 475/7/4 480/7/4
f 473/7/4 474/7/4 480/7/4
f 480/7/4 475/7/4 481/7/4
f 481/7/4 475/7/4 482/7/4
f 482/7/4 483/7/4 484/7/4
f 481/7/4 482/7/4 484/7/4
f 484/7/4 483/7/4 485/7/4
f 485/7/4 483/7/4 486/7/4
f 486/7/4 487/7/4 488/7/4
f 485/7/4 486/7/4 488/7/4
f 488/7/4 487/7/4 489/7/4
f 489/7/4 487/7/4 490/7/4
f 490/7/4 491/7/4 492/7/4
f 489/7/4 490/7/4 492/7/4
f 492/7/4 491/7/4 493/7/4
f 493/7/4 491/7/4 494/7/4
f 479/7/4 472/7/4 495/7/4
f 493/7/4 494/7/4 496/7/4
f 494/7/4 495/7/4 496/7/4
f 496/7/4 495/7/4 497/7/4
f 497/7/4 495/7/4 498/7/4
f 498/7/4 495/7/4 499/7/4
f 495/7/4 472/7/4 500/7/4
f 499/7/4 495/7/4 500/7/4
f 499/3/4 500/3/4 501/3/4
f 501/3/4 500/3/4 502/3/4
f 503/4/4 504/4/4 505/4/4
f 505/4/4 504/4/4 506/4/4
f 507/4/4 508/4/4 509/4/4
f 509/4/4 508/4/4 510/4/4
f 513/7/5 512/7/5 511/7/5
f 514/7/5 512/7/5 513/7/5
f 515/8/5 514/8/5 513/8/5
f 516/8/5 514/8/5 515/8/5
f 517/8/5 515/8/5 513/8/5
f 517/7/5 516/7/5 515/7/5
f 518/8/5 514/8/5 516/8/5
f 518/7/5 516/7/5 517/7/5
f 519/8/5 517/8/5 513/8/5
f 519/8/5 518/8/5 517/8/5
f 520/8/5 514/8/5 518/8/5
f 520/8/5 518/8/5 519/8/5
f 521/7/5 520/7/5 519/7/5
f 522/7/5 520/7/5 521/7/5
f 527/7/5 524/7/5 523/7/5
f 528/7/5 524/7/5 527/7/5
f 529/7/5 526/7/5 525/7/5
f 530/7/5 526/7/5 529/7/5
f 531/8/5 528/8/5 527/8/5
f 532/8/5 528/8/5 531/8/5
f 533/8/5 530/8/5 529/8/5
f 534/8/5 530/8/5 533/8/5
f 535/7/5 532/7/5 531/7/5
f 536/7/5 532/7/5 535/7/5
f 537/7/5 534/7/5 533/7/5
f 538/7/5 534/7/5 537/7/5
f 543/7/5 540/7/5 539/7/5
f 544/7/5 540/7/5 543/7/5
f 545/7/5 542/7/5 541/7/5
f 546/7/5 542/7/5 545/7/5
f 547/8/5 544/8/5 543/8/5
f 548/8/5 544/8/5 547/8/5
f 549/8/5 546/8/5 545/8/5
f 550/8/5 546/8/5 549/8/5
f 551/7/5 548/7/5 547/7/5
f 552/7/5 548/7/5 551/7/5
f 553/7/5 550/7/5 549/7/5
f 554/7/5 550/7/5 553/7/5
f 559/7/5 556/7/5 555/7/5
f 560/7/5 556/7/5 559/7/5
f 561/7/5 558/7/5 557/7/5
f 562/7/5 558/7/5 561/7/5
f 563/8/5 560/8/5 559/8/5
f 564/8/5 560/8/5 563/8/5
f 565/8/5 562/8/5 561/8/5
f 566/8/5 562/8/5 565/8/5
f 567/7/5 564/7/5 563/7/5
f 568/7/5 564/7/5 567/7/5
f 569/7/5 566/7/5 565/7/5
f 570/7/5 566/7/5 569/7/5
f 575/7/5 572/7/5 571/7/5
f 576/7/5 572/7/5 575/7/5
f 577/7/5 574/7/5 573/7/5
f 578/7/5 574/7/5 577/7/5
f 579/8/5 576/8/5 575/8/5
f 580/8/5 576/8/5 579/8/5
f 581/8/5 578/8/5 577/8/5
f 582/8/5 578/8/5 581/8/5
f 583/7/5 580/7/5 579/7/5
f 584/7/5 580/7/5 583/7/5
f 585/7/5 582/7/5 581/7/5
f 586/7/5 582/7/5 585/7/5
f 591/7/5 588/7/5 587/7/5
f 592/7/5 588/7/5 591/7/5
f 593/7/5 590/7/5 589/7/5
f 594/7/5 590/7/5 593/7/5
f 595/8/5 592/8/5 591/8/5
f 596/8/5 592/8/5 595/8/5
f 597/8/5 594/8/5 593/8/5
f 598/8/5 594/8/5 597/8/5
f 599/7/5 596/7/5 595/7/5
f 600/7/5 596/7/5 599/7/5
f 601/7/5 598/7/5 597/7/5
f 602/7/5 598/7/5 601/7/5
f 607/3/5 604/3/5 603/3/5
f 608/3/5 606/3/5 605/3/5
f 609/3/5 607/3/5 603/3/5
f 610/3/5 606/3/5 608/3/5
f 611/3/5 609/3/5 603/3/5
f 612/3/5 609/3/5 611/3/5
f 617/3/5 606/3/5 610/3/5
f 618/3/5 606/3/5 617/3/5
f 619/4/5 614/4/5 613/4/5
f 620/4/5 614/4/5 619/4/5
f 621/4/5 616/4/5 615/4/5
f 622/4/5 616/4/5 621/4/5
f 625/7/5 624/7/5 623/7/5
f 626/7/5 624/7/5 625/7/5
f 627/8/5 626/8/5 625/8/5
f 628/8/5 626/8/5 627/8/5
f 629/7/5 628/7/5 627/7/5
f 630/7/5 628/7/5 629/7/5
f 631/7/5 628/7/5 630/7/5
f 632/7/5 628/7/5 631/7/5
f 633/7/5 628/7/5 632/7/5
f 634/7/5 628/7/5 633/7/5
f 639/6/5 636/6/5 635/6/5
f 640/5/5 637/5/5 636/5/5
f 640/6/5 636/6/5 639/6/5
f 641/6/5 638/6/5 637/6/5
f 641/5/5 637/5/5 640/5/5
f 642/6/5 638/6/5 641/6/5
f 647/6/5 644/6/5 643/6/5
f 648/6/5 644/6/5 647/6/5
f 649/6/5 646/6/5 645/6/5
f 650/6/5 646/6/5 649/6/5
f 655/6/5 652/6/5 651/6/5
f 656/6/5 652/6/5 655/6/5
f 657/6/5 654/6/5 653/6/5
f 658/6/5 654/6/5 657/6/5
f 663/7/5 660/7/5 659/7/5
f 664/7/5 660/7/5 663/7/5
f 665/7/5 662/7/5 661/7/5
f 666/7/5 662/7/5 665/7/5
f 667/8/5 664/8/5 663/8/5
f 668/8/5 664/8/5 667/8/5
f 669/8/5 666/8/5 665/8/5
f 670/8/5 666/8/5 669/8/5
f 671/7/5 668/7/5 667/7/5
f 672/7/5 668/7/5 671/7/5
f 673/7/5 670/7/5 669/7/5
f 674/7/5 670/7/5 673/7/5
f 675/3/6 676/3/6 677/3/6
f 677/3/6 676/3/6 678/3/6
f 679/7/6 680/7/6 683/7/6
f 683/7/6 680/7/6 684/7/6
f 681/7/6 682/7/6 685/7/6
f 685/7/6 682/7/6 686/7/6
f 683/8/6 684/8/6 687/8/6
f 687/8/6 684/8/6 688/8/6
f 685/8/6 686/8/6 689/8/6
f 689/8/6 686/8/6 690/8/6
f 687/7/6 688/7/6 691/7/6
f 691/7/6 688/7/6 692/7/6
f 689/7/6 690/7/6 693/7/6
f 693/7/6 690/7/6 694/7/6
f 695/7/6 696/7/6 699/7/6
f 699/7/6 696/7/6 700/7/6
f 697/7/6 698/7/6 701/7/6
f 701/7/6 698/7/6 702/7/6
f 699/8/6 700/8/6 703/8/6
f 703/8/6 700/8/6 704/8/6
f 701/8/6 702/8/6 705/8/6
f 705/8/6 702/8/6 706/8/6
f 703/7/6 704/7/6 707/7/6
f 707/7/6 704/7/6 708/7/6
f 705/7/6 706/7/6 709/7/6
f 709/7/6 706/7/6 710/7/6
f 711/7/6 712/7/6 715/7/6
f 715/7/6 712/7/6 716/7/6
f 713/7/6 714/7/6 717/7/6
f 717/7/6 714/7/6 718/7/6
f 715/8/6 716/8/6 719/8/6
f 719/8/6 716/8/6 720/8/6
f 717/8/6 718/8/6 721/8/6
f 721/8/6 718/8/6 722/8/6
f 719/7/6 720/7/6 723/7/6
f 723/7/6 720/7/6 724/7/6
f 721/7/6 722/7/6 725/7/6
f 725/7/6 722/7/6 726/7/6
f 727/7/6 728/7/6 731/7/6
f 731/7/6 728/7/6 732/7/6
f 729/7/6 730/7/6 733/7/6
f 733/7/6 730/7/6 734/7/6
f 731/8/6 732/8/6 735/8/6
f 735/8/6 732/8/6 736/8/6
f 733/8/6 734/8/6 737/8/6
f 737/8/6 734/8/6 738/8/6
f 735/7/6 736/7/6 739/7/6
f 739/7/6 736/7/6 740/7/6
f 737/7/6 738/7/6 741/7/6
f 741/7/6 738/7/6 742/7/6
f 743/1/6 744/1/6 745/1/6
f 745/1/6 744/1/6 746/1/6
f 746/1/6 744/1/6 747/1/6
f 747/1/6 744/1/6 748/1/6
f 748/1/6 744/1/6 749/1/6
f 749/1/6 744/1/6 750/1/6
f 751/4/6 752/4/6 755/4/6
f 755/4/6 752/4/6 756/4/6
f 753/4/6 754/4/6 757/4/6
f 757/4/6 754/4/6 758/4/6
f 759/6/6 760/6/6 767/6/6
f 760/5/6 761/5/6 768/5/6
f 767/6/6 760/6/6 768/6/6
f 761/6/6 762/6/6 769/6/6
f 768/5/6 761/5/6 769/5/6
f 762/5/6 763/5/6 770/5/6
f 769/6/6 762/6/6 770/6/6
f 763/6/6 764/6/6 771/6/6
f 770/5/6 763/5/6 771/5/6
f 764/5/6 765/5/6 772/5/6
f 771/6/6 764/6/6 772/6/6
f 765/6/6 766/6/6 773/6/6
f 772/5/6 765/5/6 773/5/6
f 773/6/6 766/6/6 774/6/6
f 775/3/6 776/3/6 777/3/6
f 777/3/6 776/3/6 778/3/6
f 777/3/6 778/3/6 779/3/6
f 779/3/6 778/3/6 780/3/6
f 779/3/6 780/3/6 781/3/6
f 781/3/6 780/3/6 782/3/6
f 783/3/6 784/3/6 789/3/6
f 784/7/6 785/7/6 790/7/6
f 789/3/6 784/3/6 790/3/6
f 790/7/6 785/7/6 791/7/6
f 786/7/6 787/7/6 792/7/6
f 787/3/6 788/3/6 793/3/6
f 792/7/6 787/7/6 793/7/6
f 793/3/6 788/3/6 794/3/6
