# MagicaVoxel @ Ephtracy

# material
mtllib Enemy1.mtl
usemtl palette

# normals
vn -1 0 0
vn 1 0 0
vn 0 0 1
vn 0 0 -1
vn 0 -1 0
vn 0 1 0

# texcoords
vt 0.0292969 0.5
vt 0.0605469 0.5
vt 0.447266 0.5
vt 0.470703 0.5
vt 0.958984 0.5

# verts
v -4 2 2
v -4 2 -2
v -4 5 2
v -4 5 -2
v -3 1 2
v -3 1 -2
v -3 2 2
v -3 2 -2
v -3 5 2
v -3 5 -2
v -3 6 2
v -3 6 -2
v -3 12 3
v -3 12 2
v -3 12 -2
v -3 12 -3
v -3 13 3
v -3 13 2
v -3 13 -2
v -3 13 -3
v -3 15 3
v -3 15 -3
v -2 0 2
v -2 0 -2
v -2 1 2
v -2 1 -2
v -2 6 2
v -2 6 -2
v -2 7 2
v -2 7 -2
v -1 7 1
v -1 7 -1
v -1 12 1
v -1 12 -1
v -1 15 1
v -1 15 -1
v -1 16 1
v -1 16 -1
v -1 18 1
v -1 18 -1
v 1 1 2
v 1 1 1
v 1 1 -1
v 1 1 -2
v 1 2 2
v 1 2 1
v 1 2 -1
v 1 2 -2
v 1 5 2
v 1 5 1
v 1 5 -1
v 1 5 -2
v 1 6 2
v 1 6 1
v 1 6 -1
v 1 6 -2
v 2 2 2
v 2 2 1
v 2 2 -1
v 2 2 -2
v 2 3 2
v 2 3 1
v 2 3 -1
v 2 3 -2
v 2 4 2
v 2 4 1
v 2 4 -1
v 2 4 -2
v 2 5 2
v 2 5 1
v 2 5 -1
v 2 5 -2
v -2 2 2
v -2 2 1
v -2 2 -1
v -2 2 -2
v -2 3 2
v -2 3 1
v -2 3 -1
v -2 3 -2
v -2 4 2
v -2 4 1
v -2 4 -1
v -2 4 -2
v -2 5 2
v -2 5 1
v -2 5 -1
v -2 5 -2
v -1 1 2
v -1 1 1
v -1 1 -1
v -1 1 -2
v -1 2 2
v -1 2 1
v -1 2 -1
v -1 2 -2
v -1 5 2
v -1 5 1
v -1 5 -1
v -1 5 -2
v -1 6 2
v -1 6 1
v -1 6 -1
v -1 6 -2
v 1 7 1
v 1 7 -1
v 1 12 1
v 1 12 -1
v 1 15 1
v 1 15 -1
v 1 16 1
v 1 16 -1
v 1 17 1
v 1 17 -1
v 1 18 1
v 1 18 -1
v 2 0 2
v 2 0 -2
v 2 1 2
v 2 1 -2
v 2 6 2
v 2 6 -2
v 2 7 2
v 2 7 -2
v 3 1 2
v 3 1 -2
v 3 2 2
v 3 2 -2
v 3 5 2
v 3 5 -2
v 3 6 2
v 3 6 -2
v 3 12 3
v 3 12 -3
v 3 14 3
v 3 14 2
v 3 14 -2
v 3 14 -3
v 3 15 3
v 3 15 2
v 3 15 -2
v 3 15 -3
v 4 2 2
v 4 2 -2
v 4 5 2
v 4 5 -2
v 6 16 1
v 6 16 -1
v 6 17 1
v 6 17 -1
v -3 12 3
v -3 13 3
v -3 15 3
v -1 12 3
v -1 13 3
v -1 14 3
v 1 13 3
v 1 14 3
v 1 15 3
v 3 12 3
v 3 14 3
v 3 15 3
v -4 2 2
v -4 5 2
v -3 1 2
v -3 2 2
v -3 3 2
v -3 4 2
v -3 5 2
v -3 6 2
v -2 0 2
v -2 1 2
v -2 2 2
v -2 3 2
v -2 4 2
v -2 5 2
v -2 6 2
v -2 7 2
v -1 1 2
v -1 2 2
v -1 5 2
v -1 6 2
v 1 1 2
v 1 2 2
v 1 5 2
v 1 6 2
v 2 0 2
v 2 1 2
v 2 2 2
v 2 3 2
v 2 4 2
v 2 5 2
v 2 6 2
v 2 7 2
v 3 1 2
v 3 2 2
v 3 3 2
v 3 4 2
v 3 5 2
v 3 6 2
v 4 2 2
v 4 5 2
v -2 2 1
v -2 3 1
v -2 4 1
v -2 5 1
v -1 1 1
v -1 2 1
v -1 5 1
v -1 6 1
v -1 7 1
v -1 12 1
v -1 15 1
v -1 16 1
v -1 18 1
v 0 15 1
v 0 16 1
v 1 1 1
v 1 2 1
v 1 5 1
v 1 6 1
v 1 7 1
v 1 12 1
v 1 15 1
v 1 16 1
v 1 17 1
v 1 18 1
v 2 2 1
v 2 3 1
v 2 4 1
v 2 5 1
v 6 16 1
v 6 17 1
v -2 2 -1
v -2 3 -1
v -2 4 -1
v -2 5 -1
v -1 1 -1
v -1 2 -1
v -1 5 -1
v -1 6 -1
v -1 7 -1
v -1 12 -1
v -1 15 -1
v -1 16 -1
v -1 18 -1
v 0 15 -1
v 0 16 -1
v 1 1 -1
v 1 2 -1
v 1 5 -1
v 1 6 -1
v 1 7 -1
v 1 12 -1
v 1 15 -1
v 1 16 -1
v 1 17 -1
v 1 18 -1
v 2 2 -1
v 2 3 -1
v 2 4 -1
v 2 5 -1
v 6 16 -1
v 6 17 -1
v -4 2 -2
v -4 5 -2
v -3 1 -2
v -3 2 -2
v -3 3 -2
v -3 4 -2
v -3 5 -2
v -3 6 -2
v -2 0 -2
v -2 1 -2
v -2 2 -2
v -2 3 -2
v -2 4 -2
v -2 5 -2
v -2 6 -2
v -2 7 -2
v -1 1 -2
v -1 2 -2
v -1 5 -2
v -1 6 -2
v 1 1 -2
v 1 2 -2
v 1 5 -2
v 1 6 -2
v 2 0 -2
v 2 1 -2
v 2 2 -2
v 2 3 -2
v 2 4 -2
v 2 5 -2
v 2 6 -2
v 2 7 -2
v 3 1 -2
v 3 2 -2
v 3 3 -2
v 3 4 -2
v 3 5 -2
v 3 6 -2
v 4 2 -2
v 4 5 -2
v -3 12 -3
v -3 13 -3
v -3 15 -3
v -1 12 -3
v -1 13 -3
v -1 14 -3
v 1 13 -3
v 1 14 -3
v 1 15 -3
v 3 12 -3
v 3 14 -3
v 3 15 -3
v -2 0 2
v 2 0 2
v -2 0 -2
v 2 0 -2
v -3 1 2
v -2 1 2
v 2 1 2
v 3 1 2
v -3 1 -2
v -2 1 -2
v 2 1 -2
v 3 1 -2
v -4 2 2
v -3 2 2
v 3 2 2
v 4 2 2
v -4 2 -2
v -3 2 -2
v 3 2 -2
v 4 2 -2
v -2 3 2
v 2 3 2
v -2 3 1
v 2 3 1
v -2 3 -1
v 2 3 -1
v -2 3 -2
v 2 3 -2
v -2 5 2
v -1 5 2
v 1 5 2
v 2 5 2
v -2 5 1
v -1 5 1
v 1 5 1
v 2 5 1
v -2 5 -1
v -1 5 -1
v 1 5 -1
v 2 5 -1
v -2 5 -2
v -1 5 -2
v 1 5 -2
v 2 5 -2
v -1 6 2
v 1 6 2
v -1 6 1
v 1 6 1
v -1 6 -1
v 1 6 -1
v -1 6 -2
v 1 6 -2
v -3 12 3
v -1 12 3
v 3 12 3
v -3 12 2
v -1 12 2
v -1 12 1
v 1 12 1
v -1 12 -1
v 1 12 -1
v -3 12 -2
v -1 12 -2
v -3 12 -3
v -1 12 -3
v 3 12 -3
v 1 16 1
v 6 16 1
v 1 16 -1
v 6 16 -1
v -1 1 2
v 1 1 2
v -1 1 1
v 1 1 1
v -1 1 -1
v 1 1 -1
v -1 1 -2
v 1 1 -2
v -2 2 2
v -1 2 2
v 1 2 2
v 2 2 2
v -2 2 1
v -1 2 1
v 1 2 1
v 2 2 1
v -2 2 -1
v -1 2 -1
v 1 2 -1
v 2 2 -1
v -2 2 -2
v -1 2 -2
v 1 2 -2
v 2 2 -2
v -2 4 2
v 2 4 2
v -2 4 1
v 2 4 1
v -2 4 -1
v 2 4 -1
v -2 4 -2
v 2 4 -2
v -4 5 2
v -3 5 2
v 3 5 2
v 4 5 2
v -4 5 -2
v -3 5 -2
v 3 5 -2
v 4 5 -2
v -3 6 2
v -2 6 2
v 2 6 2
v 3 6 2
v -3 6 -2
v -2 6 -2
v 2 6 -2
v 3 6 -2
v -2 7 2
v 2 7 2
v -1 7 1
v 1 7 1
v -1 7 -1
v 1 7 -1
v -2 7 -2
v 2 7 -2
v -3 15 3
v 1 15 3
v 3 15 3
v 1 15 2
v 3 15 2
v -1 15 1
v 0 15 1
v 1 15 1
v -1 15 -1
v 0 15 -1
v 1 15 -1
v 1 15 -2
v 3 15 -2
v -3 15 -3
v 1 15 -3
v 3 15 -3
v 1 17 1
v 6 17 1
v 1 17 -1
v 6 17 -1
v -1 18 1
v 1 18 1
v -1 18 -1
v 1 18 -1

# faces
f 3/5/1 2/5/1 1/5/1
f 4/5/1 2/5/1 3/5/1
f 7/5/1 6/5/1 5/5/1
f 8/5/1 6/5/1 7/5/1
f 11/5/1 10/5/1 9/5/1
f 12/5/1 10/5/1 11/5/1
f 17/1/1 14/1/1 13/1/1
f 18/5/1 15/5/1 14/5/1
f 18/1/1 14/1/1 17/1/1
f 19/1/1 16/1/1 15/1/1
f 19/5/1 15/5/1 18/5/1
f 20/1/1 16/1/1 19/1/1
f 21/5/1 18/5/1 17/5/1
f 21/5/1 19/5/1 18/5/1
f 21/5/1 20/5/1 19/5/1
f 22/5/1 20/5/1 21/5/1
f 25/5/1 24/5/1 23/5/1
f 26/5/1 24/5/1 25/5/1
f 29/5/1 28/5/1 27/5/1
f 30/5/1 28/5/1 29/5/1
f 33/3/1 32/3/1 31/3/1
f 34/3/1 32/3/1 33/3/1
f 37/3/1 36/3/1 35/3/1
f 38/3/1 36/3/1 37/3/1
f 39/2/1 38/2/1 37/2/1
f 40/2/1 38/2/1 39/2/1
f 45/5/1 42/5/1 41/5/1
f 46/5/1 42/5/1 45/5/1
f 47/5/1 44/5/1 43/5/1
f 48/5/1 44/5/1 47/5/1
f 53/5/1 50/5/1 49/5/1
f 54/5/1 50/5/1 53/5/1
f 55/5/1 52/5/1 51/5/1
f 56/5/1 52/5/1 55/5/1
f 61/5/1 58/5/1 57/5/1
f 62/5/1 58/5/1 61/5/1
f 63/5/1 60/5/1 59/5/1
f 64/5/1 60/5/1 63/5/1
f 69/5/1 66/5/1 65/5/1
f 70/5/1 66/5/1 69/5/1
f 71/5/1 68/5/1 67/5/1
f 72/5/1 68/5/1 71/5/1
f 73/5/2 74/5/2 77/5/2
f 77/5/2 74/5/2 78/5/2
f 75/5/2 76/5/2 79/5/2
f 79/5/2 76/5/2 80/5/2
f 81/5/2 82/5/2 85/5/2
f 85/5/2 82/5/2 86/5/2
f 83/5/2 84/5/2 87/5/2
f 87/5/2 84/5/2 88/5/2
f 89/5/2 90/5/2 93/5/2
f 93/5/2 90/5/2 94/5/2
f 91/5/2 92/5/2 95/5/2
f 95/5/2 92/5/2 96/5/2
f 97/5/2 98/5/2 101/5/2
f 101/5/2 98/5/2 102/5/2
f 99/5/2 100/5/2 103/5/2
f 103/5/2 100/5/2 104/5/2
f 105/3/2 106/3/2 107/3/2
f 107/3/2 106/3/2 108/3/2
f 109/2/2 110/2/2 111/2/2
f 111/2/2 110/2/2 112/2/2
f 113/2/2 114/2/2 115/2/2
f 115/2/2 114/2/2 116/2/2
f 117/5/2 118/5/2 119/5/2
f 119/5/2 118/5/2 120/5/2
f 121/5/2 122/5/2 123/5/2
f 123/5/2 122/5/2 124/5/2
f 125/5/2 126/5/2 127/5/2
f 127/5/2 126/5/2 128/5/2
f 129/5/2 130/5/2 131/5/2
f 131/5/2 130/5/2 132/5/2
f 133/5/2 134/5/2 135/5/2
f 135/5/2 134/5/2 136/5/2
f 136/5/2 134/5/2 137/5/2
f 137/5/2 134/5/2 138/5/2
f 135/1/2 136/1/2 139/1/2
f 136/5/2 137/5/2 140/5/2
f 139/1/2 136/1/2 140/1/2
f 137/1/2 138/1/2 141/1/2
f 140/5/2 137/5/2 141/5/2
f 141/1/2 138/1/2 142/1/2
f 143/5/2 144/5/2 145/5/2
f 145/5/2 144/5/2 146/5/2
f 147/1/2 148/1/2 149/1/2
f 149/1/2 148/1/2 150/1/2
f 154/1/3 152/1/3 151/1/3
f 155/5/3 153/5/3 152/5/3
f 155/1/3 152/1/3 154/1/3
f 156/5/3 153/5/3 155/5/3
f 157/5/3 155/5/3 154/5/3
f 157/1/3 156/1/3 155/1/3
f 158/5/3 153/5/3 156/5/3
f 158/1/3 156/1/3 157/1/3
f 159/5/3 153/5/3 158/5/3
f 160/5/3 157/5/3 154/5/3
f 160/5/3 158/5/3 157/5/3
f 161/1/3 159/1/3 158/1/3
f 161/5/3 158/5/3 160/5/3
f 162/1/3 159/1/3 161/1/3
f 166/5/3 164/5/3 163/5/3
f 167/5/3 164/5/3 166/5/3
f 168/5/3 164/5/3 167/5/3
f 169/5/3 164/5/3 168/5/3
f 172/5/3 166/5/3 165/5/3
f 172/5/3 167/5/3 166/5/3
f 173/5/3 167/5/3 172/5/3
f 174/4/3 168/4/3 167/4/3
f 174/5/3 167/5/3 173/5/3
f 175/5/3 170/5/3 169/5/3
f 175/4/3 168/4/3 174/4/3
f 175/5/3 169/5/3 168/5/3
f 176/5/3 170/5/3 175/5/3
f 177/5/3 170/5/3 176/5/3
f 179/5/3 172/5/3 171/5/3
f 179/5/3 173/5/3 172/5/3
f 180/5/3 173/5/3 179/5/3
f 181/5/3 178/5/3 177/5/3
f 181/5/3 177/5/3 176/5/3
f 182/5/3 178/5/3 181/5/3
f 183/5/3 179/5/3 171/5/3
f 186/5/3 178/5/3 182/5/3
f 187/5/3 184/5/3 183/5/3
f 187/5/3 183/5/3 171/5/3
f 188/5/3 184/5/3 187/5/3
f 189/5/3 184/5/3 188/5/3
f 190/4/3 175/4/3 174/4/3
f 191/4/3 175/4/3 190/4/3
f 192/5/3 186/5/3 185/5/3
f 193/5/3 178/5/3 186/5/3
f 193/5/3 186/5/3 192/5/3
f 194/5/3 178/5/3 193/5/3
f 195/5/3 189/5/3 188/5/3
f 195/5/3 190/5/3 189/5/3
f 196/5/3 190/5/3 195/5/3
f 197/4/3 191/4/3 190/4/3
f 197/5/3 190/5/3 196/5/3
f 198/5/3 192/5/3 191/5/3
f 198/4/3 191/4/3 197/4/3
f 198/5/3 193/5/3 192/5/3
f 199/5/3 193/5/3 198/5/3
f 200/5/3 193/5/3 199/5/3
f 201/5/3 197/5/3 196/5/3
f 201/5/3 199/5/3 198/5/3
f 201/5/3 198/5/3 197/5/3
f 202/5/3 199/5/3 201/5/3
f 208/2/3 204/2/3 203/2/3
f 209/2/3 206/2/3 205/2/3
f 216/3/3 214/3/3 213/3/3
f 217/2/3 215/2/3 214/2/3
f 217/3/3 214/3/3 216/3/3
f 218/2/3 208/2/3 207/2/3
f 219/2/3 204/2/3 208/2/3
f 219/2/3 208/2/3 218/2/3
f 220/2/3 209/2/3 205/2/3
f 220/2/3 210/2/3 209/2/3
f 221/2/3 210/2/3 220/2/3
f 222/3/3 212/3/3 211/3/3
f 223/3/3 212/3/3 222/3/3
f 224/2/3 217/2/3 216/2/3
f 225/2/3 215/2/3 217/2/3
f 225/2/3 217/2/3 224/2/3
f 226/2/3 215/2/3 225/2/3
f 227/2/3 215/2/3 226/2/3
f 228/2/3 204/2/3 219/2/3
f 229/2/3 204/2/3 228/2/3
f 230/2/3 220/2/3 205/2/3
f 231/2/3 220/2/3 230/2/3
f 232/1/3 226/1/3 225/1/3
f 233/1/3 226/1/3 232/1/3
f 234/2/4 235/2/4 239/2/4
f 236/2/4 237/2/4 240/2/4
f 244/3/4 245/3/4 247/3/4
f 245/2/4 246/2/4 248/2/4
f 247/3/4 245/3/4 248/3/4
f 238/2/4 239/2/4 249/2/4
f 239/2/4 235/2/4 250/2/4
f 249/2/4 239/2/4 250/2/4
f 236/2/4 240/2/4 251/2/4
f 240/2/4 241/2/4 251/2/4
f 251/2/4 241/2/4 252/2/4
f 242/3/4 243/3/4 253/3/4
f 253/3/4 243/3/4 254/3/4
f 247/2/4 248/2/4 255/2/4
f 248/2/4 246/2/4 256/2/4
f 255/2/4 248/2/4 256/2/4
f 256/2/4 246/2/4 257/2/4
f 257/2/4 246/2/4 258/2/4
f 250/2/4 235/2/4 259/2/4
f 259/2/4 235/2/4 260/2/4
f 236/2/4 251/2/4 261/2/4
f 261/2/4 251/2/4 262/2/4
f 256/1/4 257/1/4 263/1/4
f 263/1/4 257/1/4 264/1/4
f 265/5/4 266/5/4 268/5/4
f 268/5/4 266/5/4 269/5/4
f 269/5/4 266/5/4 270/5/4
f 270/5/4 266/5/4 271/5/4
f 267/5/4 268/5/4 274/5/4
f 268/5/4 269/5/4 274/5/4
f 274/5/4 269/5/4 275/5/4
f 269/4/4 270/4/4 276/4/4
f 275/5/4 269/5/4 276/5/4
f 271/5/4 272/5/4 277/5/4
f 276/4/4 270/4/4 277/4/4
f 270/5/4 271/5/4 277/5/4
f 277/5/4 272/5/4 278/5/4
f 278/5/4 272/5/4 279/5/4
f 273/5/4 274/5/4 281/5/4
f 274/5/4 275/5/4 281/5/4
f 281/5/4 275/5/4 282/5/4
f 279/5/4 280/5/4 283/5/4
f 278/5/4 279/5/4 283/5/4
f 283/5/4 280/5/4 284/5/4
f 273/5/4 281/5/4 285/5/4
f 284/5/4 280/5/4 288/5/4
f 285/5/4 286/5/4 289/5/4
f 273/5/4 285/5/4 289/5/4
f 289/5/4 286/5/4 290/5/4
f 290/5/4 286/5/4 291/5/4
f 276/4/4 277/4/4 292/4/4
f 292/4/4 277/4/4 293/4/4
f 287/5/4 288/5/4 294/5/4
f 288/5/4 280/5/4 295/5/4
f 294/5/4 288/5/4 295/5/4
f 295/5/4 280/5/4 296/5/4
f 290/5/4 291/5/4 297/5/4
f 291/5/4 292/5/4 297/5/4
f 297/5/4 292/5/4 298/5/4
f 292/4/4 293/4/4 299/4/4
f 298/5/4 292/5/4 299/5/4
f 293/5/4 294/5/4 300/5/4
f 299/4/4 293/4/4 300/4/4
f 294/5/4 295/5/4 300/5/4
f 300/5/4 295/5/4 301/5/4
f 301/5/4 295/5/4 302/5/4
f 298/5/4 299/5/4 303/5/4
f 300/5/4 301/5/4 303/5/4
f 299/5/4 300/5/4 303/5/4
f 303/5/4 301/5/4 304/5/4
f 305/1/4 306/1/4 308/1/4
f 306/5/4 307/5/4 309/5/4
f 308/1/4 306/1/4 309/1/4
f 309/5/4 307/5/4 310/5/4
f 308/5/4 309/5/4 311/5/4
f 309/1/4 310/1/4 311/1/4
f 310/5/4 307/5/4 312/5/4
f 311/1/4 310/1/4 312/1/4
f 312/5/4 307/5/4 313/5/4
f 308/5/4 311/5/4 314/5/4
f 311/5/4 312/5/4 314/5/4
f 312/1/4 313/1/4 315/1/4
f 314/5/4 312/5/4 315/5/4
f 315/1/4 313/1/4 316/1/4
f 319/5/5 318/5/5 317/5/5
f 320/5/5 318/5/5 319/5/5
f 325/5/5 322/5/5 321/5/5
f 326/5/5 322/5/5 325/5/5
f 327/5/5 324/5/5 323/5/5
f 328/5/5 324/5/5 327/5/5
f 333/5/5 330/5/5 329/5/5
f 334/5/5 330/5/5 333/5/5
f 335/5/5 332/5/5 331/5/5
f 336/5/5 332/5/5 335/5/5
f 339/4/5 338/4/5 337/4/5
f 340/4/5 338/4/5 339/4/5
f 343/4/5 342/4/5 341/4/5
f 344/4/5 342/4/5 343/4/5
f 349/5/5 346/5/5 345/5/5
f 350/5/5 346/5/5 349/5/5
f 351/5/5 348/5/5 347/5/5
f 352/5/5 348/5/5 351/5/5
f 357/5/5 354/5/5 353/5/5
f 358/5/5 354/5/5 357/5/5
f 359/5/5 356/5/5 355/5/5
f 360/5/5 356/5/5 359/5/5
f 363/5/5 362/5/5 361/5/5
f 364/5/5 362/5/5 363/5/5
f 367/5/5 366/5/5 365/5/5
f 368/5/5 366/5/5 367/5/5
f 372/1/5 370/1/5 369/1/5
f 373/5/5 371/5/5 370/5/5
f 373/1/5 370/1/5 372/1/5
f 374/5/5 373/5/5 372/5/5
f 374/5/5 371/5/5 373/5/5
f 375/5/5 371/5/5 374/5/5
f 376/5/5 374/5/5 372/5/5
f 377/5/5 371/5/5 375/5/5
f 378/5/5 376/5/5 372/5/5
f 378/5/5 377/5/5 376/5/5
f 379/5/5 377/5/5 378/5/5
f 380/1/5 379/1/5 378/1/5
f 381/5/5 377/5/5 379/5/5
f 381/1/5 379/1/5 380/1/5
f 382/5/5 371/5/5 377/5/5
f 382/5/5 377/5/5 381/5/5
f 385/1/5 384/1/5 383/1/5
f 386/1/5 384/1/5 385/1/5
f 387/5/6 388/5/6 389/5/6
f 389/5/6 388/5/6 390/5/6
f 391/5/6 392/5/6 393/5/6
f 393/5/6 392/5/6 394/5/6
f 395/5/6 396/5/6 399/5/6
f 399/5/6 396/5/6 400/5/6
f 397/5/6 398/5/6 401/5/6
f 401/5/6 398/5/6 402/5/6
f 403/5/6 404/5/6 407/5/6
f 407/5/6 404/5/6 408/5/6
f 405/5/6 406/5/6 409/5/6
f 409/5/6 406/5/6 410/5/6
f 411/4/6 412/4/6 413/4/6
f 413/4/6 412/4/6 414/4/6
f 415/4/6 416/4/6 417/4/6
f 417/4/6 416/4/6 418/4/6
f 419/5/6 420/5/6 423/5/6
f 423/5/6 420/5/6 424/5/6
f 421/5/6 422/5/6 425/5/6
f 425/5/6 422/5/6 426/5/6
f 427/5/6 428/5/6 431/5/6
f 431/5/6 428/5/6 432/5/6
f 429/5/6 430/5/6 433/5/6
f 433/5/6 430/5/6 434/5/6
f 435/5/6 436/5/6 437/5/6
f 437/5/6 436/5/6 438/5/6
f 435/5/6 437/5/6 439/5/6
f 438/5/6 436/5/6 440/5/6
f 435/5/6 439/5/6 441/5/6
f 439/5/6 440/5/6 441/5/6
f 440/5/6 436/5/6 442/5/6
f 441/5/6 440/5/6 442/5/6
f 443/5/6 444/5/6 446/5/6
f 444/1/6 445/1/6 446/1/6
f 446/1/6 445/1/6 447/1/6
f 443/5/6 446/5/6 448/5/6
f 446/5/6 447/5/6 448/5/6
f 448/5/6 447/5/6 449/5/6
f 449/5/6 447/5/6 450/5/6
f 443/5/6 448/5/6 451/5/6
f 450/5/6 447/5/6 453/5/6
f 451/5/6 452/5/6 454/5/6
f 452/5/6 453/5/6 454/5/6
f 453/5/6 447/5/6 454/5/6
f 454/5/6 447/5/6 455/5/6
f 443/5/6 451/5/6 456/5/6
f 451/5/6 454/5/6 456/5/6
f 454/1/6 455/1/6 457/1/6
f 456/5/6 454/5/6 457/5/6
f 457/1/6 455/1/6 458/1/6
f 459/1/6 460/1/6 461/1/6
f 461/1/6 460/1/6 462/1/6
f 463/2/6 464/2/6 465/2/6
f 465/2/6 464/2/6 466/2/6
